<?xml version="1.0" standalone="no"?>
<!DOCTYPE svg PUBLIC "-//W3C//DTD SVG 1.1//EN" "http://www.w3.org/Graphics/SVG/1.1/DTD/svg11.dtd" >
<svg xmlns="http://www.w3.org/2000/svg">
<metadata></metadata>
<defs>
<font id="psl_kittithada_proitalic" horiz-adv-x="0" >
<font-face units-per-em="2048" ascent="1638" descent="-410" />
<missing-glyph horiz-adv-x="512" />
<glyph unicode="&#xe37;&#xe48;" d="M-565 922l12 61h410l16 102h61l-16 -102h62l16 102h61l-28 -163h-594zM-53 1147l24 143h62l-25 -143h-61z" />
<glyph unicode="&#xd;" horiz-adv-x="512" />
<glyph unicode=" "  horiz-adv-x="512" />
<glyph unicode="&#x09;" horiz-adv-x="512" />
<glyph unicode="&#xa0;" horiz-adv-x="512" />
<glyph unicode="!" horiz-adv-x="315" d="M41 55q9 68 78 68q62 0 53 -68q-9 -65 -78 -65q-62 0 -53 65zM115 213l67 502l64 366h84l-64 -366l-114 -502h-37z" />
<glyph unicode="&#x22;" horiz-adv-x="371" d="M156 737l47 344h71l-77 -344h-41zM305 737l47 344h74l-76 -344h-45z" />
<glyph unicode="#" horiz-adv-x="846" d="M70 328l12 67h178l74 234h-172l12 67h180l99 305h69l-98 -305h190l97 305h65l-96 -305h154l-13 -67h-164l-75 -234h163l-12 -67h-176l-108 -328h-64l107 328h-187l-104 -328h-66l103 328h-168zM326 395h190l76 234h-191z" />
<glyph unicode="$" horiz-adv-x="838" d="M80 219l63 27q41 -194 213 -191l86 496q-51 29 -85.5 51t-53.5 39q-65 62 -65 143q0 21 4 41q10 55 36.5 102t65.5 82.5t89 58t106 28.5l26 149h64l-27 -155q136 -20 186 -144l-59 -43q-47 108 -139 123l-76 -430q63 -37 101 -60t51 -34q69 -60 69 -152q0 -12 -1 -25.5 t-3 -27.5q-11 -57 -39 -106.5t-76 -94.5q-93 -87 -208 -108l-29 -162h-64l29 160q-217 12 -264 233zM311 795q0 -85 146 -168l69 399q-84 -4 -149 -76q-66 -72 -66 -155zM420 57q48 11 90.5 36t77.5 67q74 80 74 174q0 99 -160 184z" />
<glyph unicode="%" horiz-adv-x="907" d="M53 -4l821 1110l44 -21l-820 -1110zM123 840q0 100 74 176q76 76 178 76q39 0 71.5 -12.5t56.5 -35.5t37 -55t13 -71q0 -51 -20 -94.5t-58 -82.5q-76 -73 -176 -73q-39 0 -71.5 12.5t-55.5 35.5t-36 54.5t-13 69.5zM184 852q0 -27 9.5 -50t26.5 -39.5t40.5 -26t50.5 -9.5 q69 0 125 53q58 55 58 125q0 27 -10 50t-27 39.5t-41 26t-51 9.5q-35 0 -67.5 -15t-58 -39.5t-40.5 -57t-15 -66.5zM420 164q0 104 76 176q77 74 180 74q39 0 71.5 -12.5t55.5 -35t36 -54t13 -68.5q0 -102 -76 -178q-74 -74 -176 -74q-39 0 -72 12.5t-57 35.5t-37.5 54.5 t-13.5 69.5zM481 176q0 -28 10 -51t27 -39.5t41 -25.5t51 -9q71 0 127 53q56 56 56 125q0 28 -9.5 51t-26.5 40t-40.5 26.5t-50.5 9.5q-74 0 -129 -55q-56 -53 -56 -125z" />
<glyph unicode="&#x26;" horiz-adv-x="877" d="M4 211q0 14 1 26.5t3 26.5q11 63 47.5 119.5t96.5 110.5q35 31 97 72t150 93q-77 125 -77 197q0 95 75 170q76 76 170 76q36 0 65.5 -12t50.5 -34t32.5 -52t11.5 -66q0 -100 -82 -182q-26 -26 -68.5 -57t-99.5 -66l199 -363l153 152l35 -43l-157 -158l116 -221h-69 l-97 176q-211 -196 -428 -196q-50 0 -91.5 17.5t-71 48t-46 73t-16.5 92.5zM72 225q0 -39 12 -72.5t34 -58.5t53.5 -39t70.5 -14q114 0 221 59q32 19 73 49.5t89 73.5l-201 379q-318 -164 -348 -332q-4 -20 -4 -45zM389 860q0 -20 6 -41t15.5 -43t21 -44.5t21.5 -43.5 q60 42 93.5 65t41.5 31q71 65 71 142q0 48 -29.5 80t-78.5 32q-62 0 -113 -57q-24 -29 -36.5 -59t-12.5 -62z" />
<glyph unicode="'" horiz-adv-x="291" d="M190 737l48 344h73l-75 -344h-46z" />
<glyph unicode="(" horiz-adv-x="365" d="M72 238q0 103 18 211q32 189 109.5 350t201.5 303h52q-117 -145 -190 -307t-105 -346q-11 -63 -17 -122t-6 -116q0 -114 21.5 -216.5t64.5 -199.5h-51q-98 190 -98 443z" />
<glyph unicode=")" horiz-adv-x="365" d="M-55 -205q232 292 297 654q11 60 15.5 118t4.5 115q0 221 -86 420h51q101 -193 101 -447q0 -51 -4.5 -102.5t-14.5 -103.5q-65 -371 -313 -654h-51z" />
<glyph unicode="*" horiz-adv-x="721" d="M205 872l35 66l186 -70l29 213h69l-43 -213l211 70l10 -66l-213 -61l99 -172l-64 -43l-84 166q-2 -2 -41 -43t-114 -123l-47 43l159 172z" />
<glyph unicode="+" horiz-adv-x="778" d="M57 328l11 61h297l53 297h61l-53 -297h297l-10 -61h-297l-51 -297h-62l51 297h-297z" />
<glyph unicode="," horiz-adv-x="303" d="M-4 -141q97 55 131 143q-21 -12 -45 -12q-26 0 -41 18.5t-10 44.5q12 68 80 68q38 0 55.5 -27.5t9.5 -64.5q-11 -57 -51 -104t-113 -87z" />
<glyph unicode="-" horiz-adv-x="475" d="M84 328l10 61h299l-10 -61h-299z" />
<glyph unicode="." horiz-adv-x="303" d="M35 55q9 66 76 66q64 0 55 -66q-9 -65 -78 -65q-62 0 -53 65z" />
<glyph unicode="/" horiz-adv-x="874" d="M-55 -176l987 1358l47 -25l-983 -1360z" />
<glyph unicode="0" horiz-adv-x="778" d="M47 391q0 38 3 77t11 79q41 230 168 389q130 160 293 160q67 0 119 -28.5t87.5 -80.5t54 -123.5t18.5 -158.5q0 -39 -3.5 -77.5t-11.5 -80.5q-39 -236 -163 -393q-131 -168 -295 -168q-132 0 -209 116q-72 112 -72 289zM117 395q0 -154 55 -245q58 -103 166 -103 q177 0 291 238q98 202 98 403q0 75 -12.5 133.5t-38.5 106.5q-29 52 -69.5 78t-94.5 26q-133 0 -246 -155q-101 -144 -135 -330q-8 -38 -11 -76.5t-3 -75.5z" />
<glyph unicode="1" horiz-adv-x="778" d="M313 1018l43 63h228l-191 -1081h-65l180 1018h-195z" />
<glyph unicode="2" horiz-adv-x="778" d="M-6 0l469 442q63 57 104 100t64 72q45 57 66.5 111.5t21.5 105.5q0 45 -15.5 82.5t-43 63.5t-65.5 40.5t-83 14.5q-53 0 -101.5 -19t-87.5 -53t-66.5 -81t-37.5 -103h-67q27 148 141 238q103 82 229 82q58 0 107 -18t84.5 -51t55 -79.5t19.5 -103.5q0 -32 -6 -66 q-17 -97 -100 -198q-22 -26 -62 -67.5t-100 -98.5l-368 -353h505l-10 -61h-653z" />
<glyph unicode="3" horiz-adv-x="778" d="M68 213q0 12 1 24.5t3 26.5h65q-2 -49 9.5 -89t35 -68.5t58.5 -44t82 -15.5q110 0 200 90q90 93 90 205q0 43 -15.5 78t-43 59.5t-65 37.5t-80.5 13l10 64q109 0 188 82q82 81 82 190q0 75 -44.5 120.5t-129.5 45.5q-188 0 -240 -207h-65q70 271 317 271q55 0 97.5 -16 t72 -44.5t45 -69t15.5 -89.5q0 -210 -205 -312q129 -68 129 -213q0 -142 -111 -256q-110 -110 -256 -110q-53 0 -98 16t-77.5 46t-51 72t-18.5 93z" />
<glyph unicode="4" horiz-adv-x="778" d="M-29 205v8l764 905h8l-149 -848h133l-10 -65h-133l-37 -205h-68l37 205h-545zM98 270h428l115 652z" />
<glyph unicode="5" horiz-adv-x="778" d="M2 166l64 37q15 -35 39 -63.5t53.5 -49t64 -32t70.5 -11.5q148 0 258 113q113 113 113 262q0 54 -19.5 100t-53.5 79.5t-81 52t-102 18.5q-118 0 -240 -68l84 477h510l-10 -63h-443l-57 -322q102 37 180 37q67 0 122 -22.5t94.5 -62t61 -94.5t21.5 -120q0 -34 -6 -67 q-27 -163 -158 -273q-131 -108 -286 -108q-206 0 -279 180z" />
<glyph unicode="6" horiz-adv-x="778" d="M31 291q0 35 6 71q21 121 117 238l407 496l57 -29l-288 -350q78 26 135 26q126 0 207 -90q82 -88 82 -221q0 -171 -129 -309q-125 -137 -299 -137q-130 0 -213 86q-42 43 -62 98t-20 121zM102 303q0 -54 17.5 -100.5t48.5 -80.5t74 -53.5t94 -19.5q137 0 242 117 q104 122 104 258q0 54 -17.5 100.5t-49 80.5t-74.5 53.5t-95 19.5q-137 0 -241 -119q-103 -118 -103 -256z" />
<glyph unicode="7" horiz-adv-x="778" d="M-57 12l848 1004h-617l12 65h740l-922 -1093z" />
<glyph unicode="8" horiz-adv-x="778" d="M66 231q0 13 1 25.5t3 26.5q33 186 223 280q-109 70 -109 197q0 132 101 233q100 103 235 103q53 0 97.5 -17.5t76 -48.5t49 -74t17.5 -94q0 -191 -197 -299q129 -77 129 -217q0 -30 -6 -63q-21 -128 -129 -213q-105 -84 -231 -84q-56 0 -103.5 18t-82 50t-54.5 77.5 t-20 99.5zM133 248q0 -44 15.5 -80.5t43 -63.5t64.5 -42t80 -15q109 0 201 86q90 87 90 195q0 43 -16 79.5t-43.5 63.5t-65.5 42t-82 15q-110 0 -199 -86q-88 -85 -88 -194zM250 772q0 -38 13.5 -70.5t37.5 -56.5t57.5 -37.5t73.5 -13.5q51 0 95.5 18.5t84.5 57.5 q82 75 82 178q0 39 -14 72.5t-39 58.5t-58.5 39t-72.5 14q-100 0 -180 -80t-80 -180z" />
<glyph unicode="9" horiz-adv-x="778" d="M96 651q0 33 6 68q29 158 152 266q126 111 270 111q64 0 118 -22.5t92 -63.5t59.5 -97.5t21.5 -124.5q0 -36 -6 -75q-11 -57 -39 -114.5t-76 -117.5l-403 -493l-58 30l306 367q-58 -43 -156 -43q-125 0 -207 88q-80 89 -80 221zM168 659q0 -54 17.5 -100.5t48.5 -80.5 t74.5 -53t94.5 -19q137 0 242 120q51 57 75.5 120t24.5 132q0 55 -17.5 101t-48 79.5t-73 52.5t-92.5 19q-137 0 -242 -117q-104 -113 -104 -254z" />
<glyph unicode=":" horiz-adv-x="303" d="M35 55q9 66 76 66q64 0 55 -66q-9 -65 -78 -65q-62 0 -53 65zM131 602q9 66 76 66q64 0 55 -66q-9 -65 -78 -65q-62 0 -53 65z" />
<glyph unicode=";" horiz-adv-x="303" d="M-4 -141q97 55 131 143q-21 -12 -45 -12q-26 0 -41 18.5t-10 44.5q12 68 80 68q38 0 55.5 -27.5t9.5 -64.5q-11 -57 -51 -104t-113 -87zM131 602q9 66 76 66q64 0 55 -66q-9 -65 -78 -65q-62 0 -53 65z" />
<glyph unicode="&#x3c;" horiz-adv-x="762" d="M57 326l15 75l692 318l-12 -64l-623 -290l518 -310l-12 -61z" />
<glyph unicode="=" horiz-adv-x="778" d="M41 236l12 61h656l-13 -61h-655zM74 420l10 61h655l-10 -61h-655z" />
<glyph unicode="&#x3e;" horiz-adv-x="762" d="M-2 -6l12 61l627 310l-522 290l12 64l582 -318l-15 -75z" />
<glyph unicode="?" horiz-adv-x="700" d="M127 760q-15 136 92 237q108 105 258 105q58 0 104 -16t77.5 -45t48 -69.5t16.5 -88.5q0 -13 -1 -25t-3 -24q-18 -110 -166 -240q-145 -127 -160 -209l-26 -152h-66l27 156q15 84 100 166l150 141q75 82 75 172q0 35 -11 65.5t-34 53.5q-51 51 -143 51q-114 0 -197 -77 q-38 -39 -56 -84t-13 -99zM238 57q9 66 77 66q63 0 54 -66q-10 -67 -78 -67q-63 0 -53 67z" />
<glyph unicode="@" horiz-adv-x="1130" d="M72 422q0 58 12 123q40 226 227 389q187 162 406 162q187 0 303 -107q119 -107 119 -274q0 -20 -2 -40t-7 -42q-28 -169 -157 -293q-126 -123 -248 -123q-90 0 -96 70q-97 -70 -199 -70q-158 0 -158 160q0 159 134 323q138 172 296 172q51 0 90.5 -23t65.5 -71l33 66h63 l-229 -465q-12 -26 -18.5 -43t-6.5 -27q0 -33 56 -33q89 0 192 121q104 119 125 240q6 33 6 65q0 149 -110 244q-108 90 -258 90q-100 0 -191 -38t-176 -113q-169 -151 -203 -350q-5 -25 -6.5 -48.5t-1.5 -46.5q0 -178 111 -286q112 -111 295 -111q262 0 426 197l82 2 q-190 -256 -519 -256q-104 0 -188.5 30t-144 86.5t-91.5 137.5t-32 182zM336 401q0 -128 127 -125q32 2 67 16t70 42q64 52 94 112l105 211q8 16 8 35q0 22 -8.5 43.5t-25 38.5t-40 27t-53.5 10q-114 0 -229 -147q-115 -146 -115 -263z" />
<glyph unicode="A" horiz-adv-x="877" d="M-63 0l638 1116l240 -1116h-67l-78 356h-461l-203 -356h-69zM244 420h411l-110 534z" />
<glyph unicode="B" horiz-adv-x="788" d="M43 0l190 1081h248q244 0 244 -217q0 -108 -49 -184q-20 -29 -48.5 -55.5t-66.5 -49.5q170 -48 170 -221q0 -156 -115 -256q-113 -98 -276 -98h-297zM119 61h215q145 0 233 76q99 79 99 217q0 172 -289 172h-176zM213 590h174q109 0 178.5 57.5t87.5 157.5q2 14 3 26 t1 23q0 164 -211 164h-157z" />
<glyph unicode="C" horiz-adv-x="1010" d="M63 422q0 53 11 117q42 249 233 405q91 75 194 113.5t220 38.5q107 0 203 -45q42 -20 71 -44.5t49 -52.5l-16 -94q-21 39 -55 71t-76.5 54.5t-91 34.5t-98.5 12q-202 0 -365 -141q-82 -69 -131.5 -158.5t-69.5 -200.5q-5 -26 -6.5 -50.5t-1.5 -47.5q0 -91 30.5 -162 t90.5 -125q109 -100 278 -100q105 0 200 42.5t186 127.5l-17 -94q-169 -137 -377 -137q-203 0 -327 112q-66 60 -100 140.5t-34 183.5z" />
<glyph unicode="D" horiz-adv-x="889" d="M43 0l190 1081h199q238 0 356 -127q105 -113 105 -299q0 -137 -45.5 -251t-136.5 -211q-180 -193 -453 -193h-215zM119 61h141q106 0 198 35.5t171 104.5q150 132 186 338q10 56 10 110q0 86 -28 154.5t-80.5 116t-128.5 73t-172 25.5h-127z" />
<glyph unicode="E" horiz-adv-x="688" d="M43 0l190 1081h502l-10 -63h-436l-70 -395h418l-12 -64h-418l-88 -498h436l-10 -61h-502z" />
<glyph unicode="F" horiz-adv-x="602" d="M43 0l190 1081h426l-10 -63h-360l-70 -395h348l-12 -64h-348l-98 -559h-66z" />
<glyph unicode="G" horiz-adv-x="1130" d="M66 442q0 23 1.5 47.5t6.5 47.5q42 247 223 401q91 78 194.5 118t223.5 40q312 0 420 -252l-66 -41q-94 229 -364 229q-206 0 -365 -141q-159 -137 -197 -350q-5 -22 -6.5 -43.5t-1.5 -42.5q0 -171 111 -291q114 -117 284 -117q185 0 330 115q145 118 178 295h-434l12 63 h502q-24 -243 -205 -393q-171 -141 -397 -141q-195 0 -323 131q-127 133 -127 325z" />
<glyph unicode="H" horiz-adv-x="958" d="M43 0l190 1081h66l-82 -463h619l82 463h65l-190 -1081h-66l98 553h-618l-98 -553h-66z" />
<glyph unicode="I" horiz-adv-x="276" d="M43 0l190 1081h66l-190 -1081h-66z" />
<glyph unicode="J" horiz-adv-x="287" d="M-260 -111l61 41q29 -92 113 -92q110 0 143 182l187 1061h67l-186 -1061q-44 -243 -227 -243q-118 0 -158 112z" />
<glyph unicode="K" horiz-adv-x="774" d="M43 0l190 1081h66l-84 -473l584 473h88l-598 -485l442 -596h-90l-403 553l-37 -31l-92 -522h-66z" />
<glyph unicode="L" horiz-adv-x="442" d="M43 0l190 1081h66l-180 -1020h272l-10 -61h-338z" />
<glyph unicode="M" horiz-adv-x="1231" d="M-57 0l422 1116l213 -985l561 985l26 -1116h-65l-17 903l-532 -938l-205 938l-340 -903h-63z" />
<glyph unicode="N" horiz-adv-x="1155" d="M43 0l193 1096l712 -957l166 942h66l-197 -1116l-711 963l-163 -928h-66z" />
<glyph unicode="O" horiz-adv-x="1171" d="M68 442q0 25 1.5 49.5t6.5 49.5q40 226 229 391q94 81 196 122.5t216 41.5q195 0 325 -133q132 -134 132 -326q0 -51 -9 -96q-39 -227 -231 -391q-191 -164 -412 -164q-197 0 -325 131q-129 132 -129 325zM135 455q0 -171 111 -291q114 -117 286 -117q223 0 398 178 q176 179 176 400q0 172 -115 288q-113 119 -284 119q-223 0 -398 -178q-174 -176 -174 -399z" />
<glyph unicode="P" horiz-adv-x="659" d="M43 0l190 1081h230q252 0 252 -217q0 -33 -6 -69q-12 -65 -42.5 -117t-75.5 -88.5t-103.5 -56t-125.5 -19.5h-163l-90 -514h-66zM211 578h158q235 0 276 221q2 14 3 27.5t1 25.5q0 166 -192 166h-168z" />
<glyph unicode="Q" horiz-adv-x="1171" d="M68 440q0 25 1.5 50t6.5 51q39 229 227 393q187 162 416 162q195 0 323 -131q132 -132 132 -326q0 -49 -9 -94q-36 -207 -221 -391l109 -154h-92l-70 115q-188 -129 -369 -129q-198 0 -327 129q-127 130 -127 325zM135 453q0 -173 113 -289q114 -117 289 -117 q147 0 313 119l-213 276h92l176 -237q163 161 191 327q5 23 6.5 45.5t1.5 45.5q0 176 -111 292q-107 117 -284 117q-102 0 -191 -36.5t-174 -108.5q-167 -144 -201 -346q-5 -22 -6.5 -43.5t-1.5 -44.5z" />
<glyph unicode="R" horiz-adv-x="684" d="M43 0l190 1081h166q285 0 285 -213q0 -34 -6 -73q-29 -146 -131 -220q-91 -61 -217 -61l254 -514h-78l-250 514h-57l-90 -514h-66zM209 571h125q82 0 153 39q104 60 125 187q2 14 3 27.5t1 25.5q0 168 -241 168h-86z" />
<glyph unicode="S" horiz-adv-x="741" d="M31 217l63 29q46 -199 232 -199q110 0 198 88q90 90 90 201q0 88 -98 147l-246 148q-77 47 -77 141q0 11 1 23t3 26q21 122 108 197q91 78 207 78q40 0 76.5 -10.5t67 -30t53.5 -47.5t36 -64l-57 -39q-55 127 -190 127q-92 0 -166 -74q-72 -75 -72 -165q0 -82 100 -140 l201 -116q125 -71 125 -185q0 -26 -6 -53q-24 -134 -131 -223q-108 -90 -238 -90q-238 0 -280 231z" />
<glyph unicode="T" horiz-adv-x="610" d="M119 1018l10 63h610l-10 -63h-272l-181 -1018h-65l180 1018h-272z" />
<glyph unicode="U" horiz-adv-x="901" d="M88 268q0 22 1.5 45t6.5 47l127 721h66l-123 -702q-5 -25 -6.5 -48t-1.5 -44q0 -240 239 -240q292 0 351 332l122 702h66l-127 -721q-31 -166 -133 -268q-112 -106 -289 -106q-75 0 -131 19.5t-93.5 56t-56 89t-18.5 117.5z" />
<glyph unicode="V" horiz-adv-x="754" d="M125 1081h68l151 -923l475 923h68l-580 -1116z" />
<glyph unicode="W" horiz-adv-x="1423" d="M127 1081h66l131 -925l530 979l178 -979l455 925h65l-551 -1116l-178 1002l-540 -1002z" />
<glyph unicode="X" horiz-adv-x="672" d="M-57 0l389 551l-187 530h72l166 -463l324 463h73l-372 -530l196 -551h-72l-174 492l-342 -492h-73z" />
<glyph unicode="Y" horiz-adv-x="760" d="M123 1081h74l215 -551l407 551h74l-459 -620l-82 -461h-69l82 461z" />
<glyph unicode="Z" horiz-adv-x="774" d="M-53 0l819 1018h-580l11 63h696l-819 -1020h624l-10 -61h-741z" />
<glyph unicode="[" horiz-adv-x="401" d="M-20 -229l241 1372h236l-13 -72h-168l-217 -1229h168l-12 -71h-235z" />
<glyph unicode="\" horiz-adv-x="874" d="M184 1157l54 25l538 -1153l-53 -29z" />
<glyph unicode="]" horiz-adv-x="401" d="M-20 -229l12 71h170l217 1229h-170l12 72h236l-242 -1372h-235z" />
<glyph unicode="^" horiz-adv-x="844" d="M82 432l434 649h72l205 -649h-64l-190 584l-392 -584h-65z" />
<glyph unicode="_" horiz-adv-x="717" d="M-82 -158l10 56h701l-11 -56h-700z" />
<glyph unicode="`" horiz-adv-x="418" d="M211 995l90 29l102 -211l-55 -25z" />
<glyph unicode="a" horiz-adv-x="762" d="M29 260q0 35 6 76q27 148 129 244q105 96 248 96q157 0 225 -137l22 123h62l-117 -662h-61l20 121q-114 -135 -270 -135q-62 0 -111 20t-83 56t-52 86.5t-18 111.5zM92 276q0 -50 14 -92.5t41 -73t65.5 -48t88.5 -17.5q133 0 225 113q86 106 86 241q0 48 -15 88 t-42.5 68.5t-67.5 44.5t-90 16q-63 0 -116.5 -26t-98.5 -80q-90 -110 -90 -234z" />
<glyph unicode="b" horiz-adv-x="762" d="M37 0l201 1141h61l-104 -594q119 129 274 129q61 0 110 -19.5t82.5 -54.5t51.5 -84t18 -108q0 -38 -6 -74q-27 -149 -131 -250q-103 -100 -248 -100q-157 0 -225 137l-23 -123h-61zM150 270q0 -50 14 -91.5t40.5 -71.5t65 -47t88.5 -17q129 0 217 109q91 107 91 237 q0 47 -14.5 88.5t-41 72t-64.5 48.5t-85 18q-136 0 -225 -104q-86 -104 -86 -242z" />
<glyph unicode="c" horiz-adv-x="647" d="M27 264q0 33 6 68q12 72 46 133t91 110q113 101 254 101q129 0 211 -82l-14 -84q-85 106 -209 106q-63 0 -119.5 -25t-104.5 -79q-96 -107 -96 -231q0 -49 16 -92t44.5 -75t68.5 -50.5t88 -18.5q136 0 260 121l-14 -86q-63 -48 -125.5 -71t-128.5 -23q-62 0 -112.5 20.5 t-86.5 57.5t-55.5 88t-19.5 112z" />
<glyph unicode="d" horiz-adv-x="762" d="M27 260q0 35 6 76q27 148 129 244q105 96 248 96q153 0 227 -135l104 600h62l-201 -1141h-61l20 121q-117 -135 -270 -135q-62 0 -111 20t-83 56t-52 86.5t-18 111.5zM90 276q0 -51 14 -91t41 -72q55 -70 154 -70q134 0 225 115q86 106 86 241q0 48 -15 88t-42.5 68.5 t-67.5 44.5t-90 16q-63 0 -116.5 -26t-98.5 -80q-90 -110 -90 -234z" />
<glyph unicode="e" horiz-adv-x="692" d="M27 260q0 161 108 287q111 129 271 129q61 0 109 -20t81 -57t50.5 -88t17.5 -112q0 -18 -1.5 -36.5t-5.5 -36.5h-563q-6 -35 -6 -64q0 -50 15.5 -90t43.5 -68.5t68 -43.5t88 -15q148 0 252 150l47 -31q-126 -178 -317 -178q-61 0 -109 20.5t-81 57t-50.5 87t-17.5 109.5z M104 385h496q0 50 -14.5 92.5t-41 73t-64 48t-83.5 17.5q-97 0 -180 -67q-84 -68 -113 -164z" />
<glyph unicode="f" horiz-adv-x="317" d="M37 0l106 602h-71l10 60h72l43 245q42 244 213 244q30 0 69 -16l-10 -58q-20 8 -36 11.5t-30 3.5q-74 0 -110 -68q-22 -42 -37 -129l-41 -233h164l-10 -60h-164l-107 -602h-61z" />
<glyph unicode="g" horiz-adv-x="772" d="M-43 -92h63q-1 -14 -1 -28q0 -36 9 -67q14 -42 42 -71.5t68.5 -45t90.5 -15.5q257 0 322 333l18 97q-113 -125 -276 -125q-59 0 -106.5 21t-80.5 58t-51 87.5t-18 109.5q0 162 113 287q112 127 272 127q152 0 223 -125l21 111h63l-117 -658q-33 -200 -153 -299 q-97 -82 -232 -82q-130 0 -204 74q-68 65 -68 171q0 19 2 40zM100 276q0 -50 14 -92.5t41 -73t65.5 -48t86.5 -17.5q133 0 225 113q89 106 89 241q0 48 -15 88.5t-43.5 69.5t-69 45t-90.5 16q-125 0 -215 -108q-88 -106 -88 -234z" />
<glyph unicode="h" horiz-adv-x="666" d="M37 0l201 1141h61l-102 -578q86 113 217 113q170 0 170 -170q0 -23 -3 -49.5t-8 -57.5l-69 -399h-62l70 399q5 32 7.5 57t2.5 42q0 118 -125 118q-190 0 -241 -288l-58 -328h-61z" />
<glyph unicode="i" horiz-adv-x="309" d="M61 0l117 662h62l-117 -662h-62zM186 862q10 60 70 60q24 0 38 -18q11 -13 11 -30q0 -6 -2 -12q-9 -59 -67 -59q-25 0 -40 17q-11 13 -11 30q0 6 1 12z" />
<glyph unicode="j" horiz-adv-x="309" d="M-6 -387l184 1049h62l-185 -1049h-61zM186 862q10 60 70 60q23 0 38 -18q10 -13 10 -30q0 -6 -1 -12q-9 -59 -67 -59q-25 0 -40 17q-11 13 -11 30q0 6 1 12z" />
<glyph unicode="k" horiz-adv-x="578" d="M37 0l201 1141h61l-133 -754l313 275h82l-317 -281l291 -381h-82l-258 340l-43 -41l-54 -299h-61z" />
<glyph unicode="l" horiz-adv-x="260" d="M37 0l201 1141h61l-201 -1141h-61z" />
<glyph unicode="m" horiz-adv-x="991" d="M37 0l117 662h61l-14 -80q79 94 182 94q127 0 156 -119q83 119 204 119q172 0 172 -162q0 -17 -1.5 -38t-6.5 -44l-76 -432h-63l74 424q5 26 6.5 46.5t1.5 37.5q0 108 -111 108q-166 0 -207 -233l-67 -383h-62l72 408q5 24 6.5 45.5t1.5 38.5q0 124 -114 124 q-165 0 -207 -251l-64 -365h-61z" />
<glyph unicode="n" horiz-adv-x="666" d="M37 0l117 662h61l-18 -101q97 115 217 115q172 0 172 -166q0 -19 -1.5 -40t-6.5 -46l-74 -424h-62l72 403q10 56 10 93q0 122 -127 122q-190 0 -241 -290l-58 -328h-61z" />
<glyph unicode="o" horiz-adv-x="762" d="M27 270q0 161 125 283q125 125 286 125q127 0 209 -82q84 -84 84 -205q0 -161 -127 -282q-126 -123 -287 -123q-127 0 -208 82q-82 81 -82 202zM86 283q0 -52 18 -95.5t49.5 -75t75.5 -49.5t97 -18q132 0 237 102t105 234q0 49 -18.5 92.5t-50.5 75.5t-76.5 50.5 t-96.5 18.5q-133 0 -238 -102q-102 -102 -102 -233z" />
<glyph unicode="p" horiz-adv-x="762" d="M-31 -387l185 1049h61l-20 -119q112 133 272 133q61 0 110 -20t82.5 -56.5t51.5 -87t18 -111.5q0 -36 -6 -75q-13 -75 -46.5 -137.5t-82.5 -107.5t-111.5 -70t-134.5 -25q-161 0 -229 131l-88 -504h-62zM145 260q0 -48 15 -88t42.5 -68t67.5 -43.5t90 -15.5 q126 0 220 109q86 101 86 231q0 50 -14 92.5t-41 74t-65.5 49t-86.5 17.5q-66 0 -122 -27.5t-101 -84.5q-91 -112 -91 -246z" />
<glyph unicode="q" horiz-adv-x="762" d="M25 250q0 33 6 74q27 148 131 249q54 51 115.5 77t134.5 26q154 0 225 -129l20 115h62l-184 -1049h-62l88 498q-110 -125 -272 -125q-62 0 -111 19t-83 53.5t-52 83.5t-18 108zM86 260q0 -48 15 -88t43.5 -68t68.5 -43.5t90 -15.5q129 0 217 109q45 51 66.5 108t21.5 123 q0 49 -14.5 91.5t-41.5 74t-66 49.5t-87 18q-66 0 -122 -27.5t-101 -84.5q-90 -113 -90 -246z" />
<glyph unicode="r" horiz-adv-x="371" d="M37 0l117 662h61l-16 -95q58 109 161 109q30 0 68 -12l-43 -58q-27 10 -45 10q-91 0 -137 -102q-11 -26 -22.5 -69.5t-22.5 -106.5l-60 -338h-61z" />
<glyph unicode="s" horiz-adv-x="504" d="M0 160l61 22q22 -139 138 -139q67 0 118 53q56 56 56 121q0 60 -68 96q-32 14 -63.5 29t-63.5 31q-67 39 -67 106q0 80 61 137q63 60 143 60q57 0 93 -26t53 -77l-58 -30q-24 73 -100 73q-21 0 -42 -8t-39 -22t-30.5 -32.5t-15.5 -39.5q-1 -8 -1 -15q0 -50 56 -79 q32 -17 65.5 -32.5t65.5 -31.5q74 -41 74 -123q0 -20 -4 -40q-8 -45 -30.5 -83t-55.5 -65.5t-74 -43t-84 -15.5q-81 0 -131.5 46.5t-56.5 127.5z" />
<glyph unicode="t" horiz-adv-x="274" d="M43 0l107 602h-74l10 60h74l41 237h63l-41 -237h115l-10 -60h-115l-107 -602h-63z" />
<glyph unicode="u" horiz-adv-x="639" d="M61 166q0 30 7 59l77 437h62l-68 -388q-5 -27 -7.5 -50t-2.5 -42q0 -137 137 -137q102 0 154 70q37 53 55 159l68 388h63l-78 -437q-42 -239 -272 -239q-195 0 -195 180z" />
<glyph unicode="v" horiz-adv-x="586" d="M53 662h66l137 -549l322 549h65l-416 -697z" />
<glyph unicode="w" horiz-adv-x="950" d="M53 664h64l110 -537l310 571l108 -571l299 537h64l-392 -699l-108 572l-309 -572z" />
<glyph unicode="x" horiz-adv-x="600" d="M-61 0l321 352l-182 310h72l159 -267l248 267h78l-291 -310l197 -352h-76l-174 305l-281 -305h-71z" />
<glyph unicode="y" horiz-adv-x="623" d="M8 -387l217 373l-188 676h65l170 -601l351 601h63l-614 -1049h-64z" />
<glyph unicode="z" horiz-adv-x="651" d="M-66 0l633 602h-450l10 60h580l-629 -603h520l-10 -59h-654z" />
<glyph unicode="{" horiz-adv-x="401" d="M66 428l10 61q114 78 129 166l45 252q12 62 29 106t45 72t68.5 42t99.5 16l-11 -66q-137 -3 -155 -114l-47 -269q-20 -104 -54 -153q-30 -43 -94 -82v-2q70 -58 70 -154q0 -20 -1.5 -42t-6.5 -48l-46 -264q-2 -8 -2 -15.5v-15.5q0 -84 117 -84l-12 -63q-92 4 -131 36.5 t-39 104.5q0 39 10 92l45 252q4 20 4 37q0 71 -73 135z" />
<glyph unicode="|" horiz-adv-x="428" d="M180 0v1141h68v-1141h-68z" />
<glyph unicode="}" horiz-adv-x="401" d="M-53 -229l12 63q134 0 156 115l45 264q27 170 147 244v2q-69 57 -69 145q0 20 1.5 42t6.5 48l47 269q2 8 2 15v15q0 81 -117 84l10 66q92 -4 131 -35.5t39 -103.5q0 -41 -10 -97l-45 -252q-4 -16 -4 -34q0 -32 19 -66t57 -66l-10 -61q-116 -78 -132 -172l-45 -252 q-22 -124 -69 -174q-53 -53 -172 -59z" />
<glyph unicode="~" horiz-adv-x="844" d="M61 303q57 72 113.5 109t116.5 37q66 0 155 -56q92 -53 129 -53q76 0 156 117l60 -35q-51 -79 -109 -117.5t-121 -38.5q-45 0 -143 56q-100 55 -142 55q-65 0 -157 -107z" />
<glyph unicode="&#xa4;" horiz-adv-x="840" d="M8 164l148 145q-62 83 -62 193q0 114 62 188l-148 150l76 71l145 -145q80 59 193 59q55 0 105.5 -16t82.5 -43l150 145l71 -71l-145 -150q59 -80 59 -188q0 -113 -59 -193l145 -145l-71 -76l-150 148q-15 -13 -36 -23.5t-47 -20.5q-53 -18 -105 -18q-110 0 -193 62 l-145 -148zM197 502q0 -94 63 -164q65 -68 162 -68q92 0 158 68q63 63 63 164q0 46 -16.5 87t-45.5 72t-70 49.5t-89 18.5q-96 0 -160 -67q-65 -74 -65 -160z" />
<glyph unicode="&#xa9;" horiz-adv-x="1147" d="M45 444q0 25 1.5 49.5t6.5 49.5q40 228 232 391q193 162 422 162q202 0 333 -131q131 -128 131 -326q0 -23 -1.5 -47.5t-6.5 -48.5q-39 -231 -231 -396q-190 -161 -420 -161q-205 0 -336 131t-131 327zM115 455q0 -173 114 -287q113 -113 295 -113q201 0 367 142 q165 142 203 346q5 21 6.5 42.5t1.5 43.5q0 170 -115 282q-115 115 -293 115q-203 0 -368 -141q-167 -141 -203 -342q-5 -23 -6.5 -45t-1.5 -43zM311 473q0 154 111 270q113 119 266 119q122 0 199 -80l-17 -96q-83 107 -196 107q-114 0 -203 -95q-86 -92 -86 -206 q0 -45 14.5 -84t41 -67.5t62.5 -45t79 -16.5q121 0 247 120l-16 -100q-122 -90 -242 -90q-58 0 -106 19.5t-82 54.5t-53 83.5t-19 106.5z" />
<glyph unicode="&#xab;" horiz-adv-x="537" d="M59 459l246 241l35 -38l-205 -203l133 -203l-47 -39zM227 459l246 241l33 -38l-205 -203l133 -203l-45 -39z" />
<glyph unicode="&#xac;" horiz-adv-x="778" d="M51 297v90h676v-268h-82v178h-594z" />
<glyph unicode="&#xad;" horiz-adv-x="778" d="M57 328l11 61h655l-10 -61h-656z" />
<glyph unicode="&#xae;" horiz-adv-x="1147" d="M45 444q0 25 1.5 49.5t6.5 49.5q40 228 232 391q193 162 422 162q202 0 333 -131q131 -128 131 -326q0 -23 -1.5 -47.5t-6.5 -48.5q-39 -231 -231 -396q-190 -161 -420 -161q-205 0 -336 131t-131 327zM115 455q0 -173 114 -287q113 -113 295 -113q201 0 367 142 q165 142 203 346q5 21 6.5 42.5t1.5 43.5q0 170 -115 282q-115 115 -293 115q-203 0 -368 -141q-167 -141 -203 -342q-5 -23 -6.5 -45t-1.5 -43zM352 227l107 607h264q190 0 190 -123q0 -19 -4 -39q-27 -163 -219 -166l135 -279h-88l-125 279h-141l-49 -279h-70zM483 575 h119q57 0 92.5 2t50.5 5q42 9 65.5 32t31.5 60q15 90 -148 90h-178z" />
<glyph unicode="&#xb0;" horiz-adv-x="541" d="M66 713q0 40 15.5 77t42.5 64.5t63.5 44t78.5 16.5q43 0 80.5 -16t65 -43t43.5 -64t16 -79t-16 -79t-43.5 -64.5t-65 -43.5t-80.5 -16q-41 0 -77 15.5t-63.5 43t-43.5 64.5t-16 80zM121 713q0 -30 11.5 -57t31 -47t46 -32t56.5 -12q62 0 105 43q45 46 45 105 q0 30 -12 56.5t-32.5 46t-47.5 31t-58 11.5t-57.5 -11t-46 -30.5t-30.5 -46t-11 -57.5z" />
<glyph unicode="&#xb6;" horiz-adv-x="727" d="M0 858q0 153 94 229q90 66 248 66h389v-41h-102v-1356h-62v1356h-145v-1356h-55v805q-168 0 -263 62q-104 74 -104 235z" />
<glyph unicode="&#xb7;" horiz-adv-x="338" d="M96 449q0 30 20.5 50.5t53.5 20.5q31 0 51.5 -21.5t20.5 -49.5q0 -31 -21.5 -52.5t-50.5 -21.5q-33 0 -53.5 20.5t-20.5 53.5z" />
<glyph unicode="&#xbb;" horiz-adv-x="537" d="M72 256l202 203l-131 203l45 38l158 -241l-242 -242zM238 256l204 203l-133 203l45 38l158 -241l-242 -242z" />
<glyph unicode="&#xd7;" horiz-adv-x="778" d="M49 104l299 254l-209 254l49 43l211 -254l297 254l37 -43l-299 -254l209 -254l-51 -43l-209 254l-299 -254z" />
<glyph unicode="&#xf7;" horiz-adv-x="778" d="M57 328l11 61h655l-10 -61h-656zM287 141q9 66 78 66q62 0 53 -66q-9 -65 -76 -65q-64 0 -55 65zM365 575q12 66 75 66q29 0 45.5 -20t10.5 -46q-14 -65 -78 -65q-67 0 -53 65z" />
<glyph unicode="&#xe00;" horiz-adv-x="205" />
<glyph unicode="&#xe01;" horiz-adv-x="778" d="M10 0l117 668q145 166 348 166q59 0 109.5 -14.5t87 -42t57.5 -68.5t21 -93q0 -11 -1.5 -23t-3.5 -26l-100 -567h-61l96 549q4 20 4 45q0 43 -16 76.5t-45.5 56t-70 34t-89.5 11.5q-169 0 -277 -123l-114 -649h-62z" />
<glyph unicode="&#xe02;" horiz-adv-x="707" d="M31 252q0 32 6 70q17 93 76.5 178t165.5 164l-70 133l57 34l92 -172q-225 -155 -260 -337q-6 -32 -6 -62q0 -47 14.5 -86t41 -67.5t64.5 -44t85 -15.5q49 0 93 16.5t79 46.5t58.5 71t31.5 89l98 549h62l-98 -549q-23 -122 -117 -204q-95 -80 -217 -80q-59 0 -106 19.5 t-80.5 54.5t-51.5 84t-18 108z" />
<glyph unicode="&#xe03;" horiz-adv-x="717" d="M39 244q0 34 6 69q34 201 256 322l21 117l-103 -82q-12 21 -29 41q-41 48 -92 75l39 43q66 -34 101 -84l96 74h61l-39 -211q-215 -101 -250 -295q-6 -30 -6 -57q0 -47 14 -85.5t41 -66t65.5 -42.5t86.5 -15q49 0 93 16.5t79 46.5t58.5 71t31.5 89l99 549h61l-98 -549 q-23 -123 -117 -204q-94 -80 -217 -80q-59 0 -106.5 18.5t-81 52t-52 81t-18.5 106.5z" />
<glyph unicode="&#xe04;" horiz-adv-x="778" d="M10 0l99 563q21 118 129 195q106 76 237 76q58 0 107.5 -16.5t86.5 -46.5t58 -72t21 -93q0 -11 -1.5 -21.5t-3.5 -21.5l-98 -563h-61l98 563q2 8 2 16.5v16.5q0 40 -17 72.5t-46.5 55.5t-70 35.5t-87.5 12.5q-106 0 -191 -57q-43 -29 -68.5 -66.5t-33.5 -85.5l-20 -117 h258l-11 -61h-258l-67 -385h-62z" />
<glyph unicode="&#xe05;" horiz-adv-x="819" d="M10 0l103 578q18 104 94 180t176 76l88 -134l137 134q43 0 77.5 -15.5t58.5 -43t36.5 -64.5t12.5 -80q0 -14 -1.5 -26.5t-3.5 -26.5l-102 -578h-61l102 578q4 20 4 40q0 31 -8 58.5t-23 48.5t-36 34.5t-46 16.5l-161 -162l-105 162q-32 -4 -61 -21.5t-52.5 -44.5 t-40.5 -61t-24 -71l-24 -132h278l-10 -61h-279l-67 -385h-62z" />
<glyph unicode="&#xe06;" horiz-adv-x="788" d="M20 0l89 504q9 54 81 102q38 23 57.5 44t22.5 38l13 66l-109 -74q-8 15 -31 42.5t-63 65.5l43 41q22 -17 39 -36t31 -39l102 65h61l-26 -145q-9 -41 -82 -86q-71 -47 -80 -96l-37 -218q-2 -8 -2 -14v-14q0 -82 72 -142q70 -57 166 -57q52 0 97.5 15t81.5 42.5t60 66 t33 85.5l100 563h62l-101 -563q-22 -118 -118 -195q-99 -75 -226 -75q-40 0 -79 9.5t-73 26.5t-60.5 40.5t-41.5 52.5l-20 -115h-62z" />
<glyph unicode="&#xe07;" horiz-adv-x="737" d="M80 807l65 14l52 -764q87 -5 162 16.5t133.5 67t98 114t54.5 157.5q5 23 6.5 45.5t1.5 44.5q0 258 -278 258h-26.5t-26.5 -2l12 61q15 2 29 2h28q326 0 326 -301q0 -52 -10 -108q-18 -98 -61 -174.5t-107 -130t-147 -81.5t-181 -28q-19 0 -37.5 1t-38.5 3z" />
<glyph unicode="&#xe08;" horiz-adv-x="752" d="M55 690q160 144 369 144q73 0 130 -22.5t97 -64t61 -99.5t21 -130q0 -22 -1.5 -44.5t-6.5 -47.5q-35 -197 -182 -320q-78 -63 -166 -91.5t-191 -20.5l-20 440h-84l12 62h133l21 -443q151 -3 268 105q120 108 148 268q6 40 6 76q0 61 -18.5 110.5t-52.5 85t-82.5 55 t-108.5 19.5q-165 0 -310 -123z" />
<glyph unicode="&#xe09;" horiz-adv-x="758" d="M20 401l11 62h123l-37 -207q-4 -20 -4 -41q0 -39 14 -70t39 -53t60.5 -33.5t78.5 -11.5q51 0 99 17t96 49q96 67 112 161l50 289q2 8 2 16.5v16.5q0 40 -17 72.5t-47 55.5t-70.5 35.5t-87.5 12.5q-87 0 -174 -41q-89 -47 -123 -117h-61q34 95 149 160q54 29 108 44.5 t114 15.5q57 0 107 -17t86.5 -47t57.5 -72t21 -92q0 -23 -4 -43l-90 -522l12 -41h-82l21 115q-114 -129 -289 -129q-54 0 -99 15.5t-77.5 44t-50 68.5t-17.5 89q0 14 1 26.5t3 26.5l27 145h-62z" />
<glyph unicode="&#xe0a;" horiz-adv-x="715" d="M14 29l142 790h61l-131 -743q73 -32 174 -29q71 1 130 21t103.5 55.5t74 86t40.5 112.5q6 30 6 57q0 203 -233 256l240 194l36 -36l-170 -140q189 -83 189 -262q0 -33 -6 -69q-28 -149 -135 -238q-57 -48 -128.5 -71t-158.5 -25q-132 -3 -234 41z" />
<glyph unicode="&#xe0b;" horiz-adv-x="735" d="M35 29l84 469q5 29 23 55.5t48 52.5q64 52 70 82l12 66l-108 -74q-8 15 -31 42.5t-63 65.5l43 41q21 -17 38 -36t31 -39l103 65h61l-24 -139q-8 -37 -72 -92q-63 -54 -72 -105l-72 -407q75 -32 175 -29q71 1 129.5 21t103 55.5t74 86t41.5 112.5q6 30 6 57 q0 203 -234 256l240 194l37 -36l-170 -140q188 -83 188 -262q0 -33 -6 -69q-27 -149 -135 -238q-57 -48 -128 -71t-159 -25q-133 -3 -233 41z" />
<glyph unicode="&#xe0c;" horiz-adv-x="1311" d="M10 0l117 668q145 166 348 166q59 0 109.5 -14.5t87 -42t57.5 -68.5t21 -93q0 -12 -1.5 -24t-3.5 -25l-51 -293q-2 -8 -2 -16v-16q0 -41 17.5 -76.5t47.5 -62t69 -41.5t83 -15q49 0 91.5 14.5t75.5 41.5t55 66t30 87l101 563h61l-100 -563q-12 -61 -41 -110.5t-71.5 -85 t-96.5 -55t-115 -19.5q-79 0 -141 36t-92 93l-21 -115h-61l96 549q4 20 4 45q0 43 -16 76.5t-45.5 56t-70 34t-89.5 11.5q-169 0 -277 -123l-104 -588h123l-10 -61h-185z" />
<glyph unicode="&#xe0d;" horiz-adv-x="1311" d="M10 0l117 668q145 166 348 166q59 0 109.5 -14.5t87 -42t57.5 -67.5t21 -92q0 -12 -1.5 -24.5t-3.5 -26.5l-26 -145q-2 -9 -3 -18.5t-1 -18.5q0 -37 15.5 -65t42.5 -47.5t64 -29.5t81 -10q50 0 96 16t83 44t62.5 67t34.5 86l68 373h61l-100 -563q-23 -121 -125 -197 q-103 -73 -234 -73q-188 0 -262 116l53 43q75 -98 217 -98q52 0 101 15t88 42.5t65.5 66t34.5 85.5l4 23q-109 -107 -258 -107q-58 0 -105 13.5t-80 39t-51 63t-18 85.5q0 11 1 23t3 26l23 127q4 20 4 45q0 43 -16 76.5t-45.5 56t-70 34t-89.5 11.5q-169 0 -277 -123 l-104 -588h123l-10 -61h-185z" />
<glyph unicode="&#xe0e;" horiz-adv-x="788" d="M-115 -307l11 61h276l221 148l158 -142l139 789q4 20 4 45q0 43 -16 76.5t-45.5 56t-70 34t-89.5 11.5q-170 0 -276 -123l-115 -649h-143l10 61h82l106 607q145 166 348 166q59 0 109.5 -14.5t87 -42t57.5 -68.5t21 -93q0 -26 -4 -49l-154 -874h-61l-160 143l-209 -143 h-287z" />
<glyph unicode="&#xe0f;" horiz-adv-x="788" d="M-135 -307l10 61h191l159 135l90 -131l136 131l102 -118l137 778q4 20 4 45q0 43 -16 76.5t-45.5 56t-70 34t-89.5 11.5q-170 0 -276 -123l-115 -649h-143l10 61h82l106 607q145 166 348 166q59 0 109.5 -14.5t87 -42t57.5 -68.5t21 -93q0 -26 -4 -49l-154 -874h-61 l-103 123l-135 -133l-90 133l-143 -123h-205z" />
<glyph unicode="&#xe10;" horiz-adv-x="752" d="M-119 -307l10 61h170l160 135l90 -131l135 131l103 -118l22 123l-22 51h92l-43 -252h-61l-103 123l-135 -133l-90 133l-143 -123h-185zM55 690q160 144 369 144q108 0 182 -50l96 97l43 -37l-94 -94q42 -45 62 -102.5t20 -129.5q0 -23 -1.5 -46t-6.5 -46 q-35 -197 -182 -320q-78 -63 -166 -91.5t-191 -20.5l-20 450h-82l10 52h133l21 -443q151 -3 268 105q120 108 148 268q6 40 6 76q0 61 -18.5 110.5t-52.5 85t-82.5 55t-108.5 19.5q-165 0 -310 -123z" />
<glyph unicode="&#xe11;" horiz-adv-x="788" d="M20 0l89 504q9 54 81 102q38 23 57.5 44t22.5 38l13 66l-109 -74q-8 15 -31 42.5t-63 65.5l43 41q22 -17 39 -36t31 -39l102 65h61l-26 -145q-9 -41 -82 -86q-71 -47 -80 -96l-64 -367l486 694q85 0 129.5 -46.5t44.5 -125.5q0 -12 -1 -24.5t-3 -26.5l-105 -596h-61 l104 598q2 8 2 17v18q0 54 -26.5 89.5t-65.5 35.5l-526 -758h-62z" />
<glyph unicode="&#xe12;" horiz-adv-x="1356" d="M37 264q0 60 12 131q29 164 135 293q108 129 215 146l93 -134l131 129q40 0 72.5 -14.5t55 -40.5t34.5 -62t12 -79q0 -29 -6 -60l-52 -299q-2 -8 -2 -16v-16q0 -41 17.5 -76.5t47.5 -62t69 -41.5t83 -15q49 0 91.5 14.5t75.5 41.5t55 66t30 87l101 563h61l-100 -563 q-12 -61 -41 -110.5t-71.5 -85t-96.5 -55t-115 -19.5q-79 0 -141 36t-92 93l-21 -115h-61l100 573q4 20 4 45q0 139 -100 154l-156 -158l-108 158q-68 -24 -144 -123q-45 -60 -73.5 -122.5t-40.5 -131.5q-5 -29 -8 -55.5t-3 -52.5q0 -236 172 -236q69 0 127 64l43 -37 q-78 -88 -180 -88q-225 0 -225 274z" />
<glyph unicode="&#xe13;" horiz-adv-x="1311" d="M10 0l117 668q145 166 348 166q59 0 109.5 -14.5t87 -42t57.5 -68.5t21 -93q0 -11 -1.5 -23t-3.5 -26l-55 -311q-2 -12 -3 -23t-1 -22q0 -164 182 -164q97 0 189 66q93 69 108 161l97 545h61l-145 -819h-62l21 115q-111 -129 -279 -129q-53 0 -96 15t-73.5 43t-47 67.5 t-16.5 89.5q0 14 1 27.5t3 27.5l51 293q4 20 4 45q0 43 -16 76.5t-45.5 56t-70 34t-89.5 11.5q-169 0 -277 -123l-104 -588h123l-10 -61h-185z" />
<glyph unicode="&#xe14;" horiz-adv-x="782" d="M35 258q0 58 12 129q17 91 58 169t104 144q131 134 289 134q58 0 104.5 -17t79.5 -47.5t50.5 -73.5t17.5 -94q0 -14 -1.5 -26.5t-3.5 -26.5l-96 -549h-61l96 545q4 20 4 41q0 40 -14.5 74.5t-41 59t-64 38.5t-83.5 14q-136 0 -243 -119q-106 -110 -133 -266 q-5 -29 -8 -55.5t-3 -52.5q0 -228 174 -228q69 0 127 64l43 -37q-78 -88 -180 -88q-227 0 -227 268z" />
<glyph unicode="&#xe15;" horiz-adv-x="823" d="M37 262q0 62 12 133q32 163 139 295q104 128 211 144l93 -134l131 129q40 0 72.5 -14t55 -40t34.5 -62t12 -80q0 -29 -6 -60l-101 -573h-61l100 573q4 20 4 45q0 139 -100 154l-156 -158l-108 158q-32 -12 -69 -43t-75 -82q-45 -60 -73.5 -121.5t-40.5 -130.5 q-7 -31 -10 -60t-3 -56q0 -228 174 -228q69 0 127 64l43 -37q-78 -88 -180 -88q-225 0 -225 272z" />
<glyph unicode="&#xe16;" horiz-adv-x="778" d="M10 0l117 668q145 166 348 166q59 0 109.5 -14.5t87 -42t57.5 -68.5t21 -93q0 -11 -1.5 -23t-3.5 -26l-100 -567h-61l96 549q4 20 4 45q0 43 -16 76.5t-45.5 56t-70 34t-89.5 11.5q-169 0 -277 -123l-104 -588h123l-10 -61h-185z" />
<glyph unicode="&#xe17;" horiz-adv-x="778" d="M10 0l146 819h61l-20 -114q23 29 57.5 52t79.5 42q42 17 83 26t83 9q55 0 100.5 -15.5t78.5 -44t51 -69.5t18 -93q0 -12 -1.5 -25.5t-3.5 -27.5l-98 -559h-61l96 543q2 12 3 24t1 23q0 85 -53 133.5t-144 48.5q-102 0 -202 -67q-102 -69 -117 -160l-96 -545h-62z" />
<glyph unicode="&#xe18;" horiz-adv-x="713" d="M4 29l70 391l65 20l-63 -360q42 -17 89 -25t101 -8q119 0 207 49q101 53 119 152q4 15 4 33q0 72 -55 117t-164 65q-75 14 -122.5 24.5t-70.5 18.5q-88 33 -88 106q0 102 121 166q104 53 213 53q118 0 195 -51q85 -58 94 -166h-68q-6 36 -29 65t-61 52q-34 20 -71.5 29.5 t-79.5 9.5q-83 0 -160 -41q-75 -41 -84 -86q-9 -53 70 -84q21 -8 62 -17t101 -20q260 -45 260 -223q0 -12 -1 -24.5t-3 -26.5q-21 -126 -141 -197q-54 -32 -118.5 -47.5t-139.5 -15.5q-129 0 -252 41z" />
<glyph unicode="&#xe19;" horiz-adv-x="778" d="M51 207q0 12 1 24.5t3 24.5l101 563h61l-100 -563q-4 -20 -4 -39q0 -39 14.5 -70.5t41.5 -53.5t64 -34t82 -12q54 0 104 17t99 49q100 67 115 161l96 545h62l-146 -819h-61l20 115q-24 -29 -59 -52.5t-75 -40.5t-83 -26.5t-82 -9.5q-56 0 -102.5 16t-80.5 45t-52.5 69.5 t-18.5 90.5z" />
<glyph unicode="&#xe1a;" horiz-adv-x="778" d="M51 213q0 23 4 43l101 563h61l-100 -563q-4 -15 -4 -33q0 -80 67 -129q62 -47 156 -47q104 0 190 57q87 58 103 152l100 563h62l-101 -563q-22 -118 -129 -195q-107 -75 -235 -75q-59 0 -109 17t-87 47t-58 71.5t-21 91.5z" />
<glyph unicode="&#xe1b;" horiz-adv-x="778" d="M51 213q0 23 4 43l101 563h61l-100 -563q-4 -15 -4 -33q0 -80 67 -129q62 -47 156 -47q104 0 190 57q87 58 103 152l135 768h61l-135 -768q-22 -118 -129 -195q-107 -75 -235 -75q-59 0 -109 17t-87 47t-58 71.5t-21 91.5z" />
<glyph unicode="&#xe1c;" horiz-adv-x="983" d="M84 819h201l-13 -61h-122l51 -656l346 717h55l96 -717l308 717h59l-356 -819h-54l-100 717l-350 -717h-51z" />
<glyph unicode="&#xe1d;" horiz-adv-x="983" d="M84 819h201l-13 -61h-122l51 -656l346 717h55l96 -717l396 922h59l-444 -1024h-54l-100 717l-350 -717h-51z" />
<glyph unicode="&#xe1e;" horiz-adv-x="983" d="M84 819h59l58 -717l346 717h55l96 -717l308 717h59l-356 -819h-54l-100 717l-350 -717h-51z" />
<glyph unicode="&#xe1f;" horiz-adv-x="983" d="M84 819h59l58 -717l346 717h55l96 -717l396 922h59l-444 -1024h-54l-100 717l-350 -717h-51z" />
<glyph unicode="&#xe20;" horiz-adv-x="788" d="M-61 0l10 61h82l106 607q145 166 348 166q59 0 109.5 -14.5t87 -42t57.5 -68.5t21 -93q0 -11 -1 -23t-3 -26l-101 -567h-61l96 549q4 20 4 45q0 43 -16 76.5t-45.5 56t-70 34t-89.5 11.5q-170 0 -276 -123l-115 -649h-143z" />
<glyph unicode="&#xe21;" horiz-adv-x="778" d="M10 0l146 819h61l-96 -545q-2 -8 -2 -15v-15q0 -42 18 -76.5t53 -63.5q72 -57 166 -57q52 0 98 15t82 42.5t60 66t33 85.5l100 563h62l-101 -563q-11 -60 -39.5 -108t-79.5 -87q-49 -38 -105.5 -56.5t-119.5 -18.5q-40 0 -79 9.5t-73 26.5t-60.5 40.5t-41.5 52.5 l-20 -115h-62z" />
<glyph unicode="&#xe22;" horiz-adv-x="776" d="M20 209q0 91 66 172q67 82 158 106q-57 6 -95 41t-38 90q0 94 86 156q79 55 176 55q61 0 100 -14l-10 -61q-23 8 -47.5 11t-50.5 3q-35 0 -66.5 -8.5t-56.5 -24.5t-41.5 -38t-22.5 -50q-9 -65 45 -96q49 -31 123 -31h76l-12 -61h-58q-97 0 -180 -68q-86 -74 -86 -170 q0 -39 17.5 -71t50 -54.5t79 -34.5t105.5 -12q149 0 268 92l121 678h61l-124 -706q-133 -125 -336 -125q-150 0 -232 63q-76 58 -76 158z" />
<glyph unicode="&#xe23;" horiz-adv-x="725" d="M20 203q0 11 1.5 22.5t3.5 24.5h61q-2 -9 -3 -18.5t-1 -18.5q0 -80 70 -125q61 -43 157 -43q57 0 105.5 15t93.5 44q100 64 100 172q0 111 -221 152q-142 27 -192 49q-91 40 -91 113q0 107 117 178q100 61 215 61q61 0 112.5 -14t89.5 -41t60 -67.5t23 -92.5h-66 q-9 79 -80 117q-58 37 -149 37q-42 0 -82 -9.5t-78 -29.5q-83 -44 -92 -106t70 -93q19 -8 60 -18t106 -23q262 -51 262 -200q0 -19 -4 -39q-11 -63 -43.5 -112.5t-89.5 -86.5q-51 -34 -110.5 -50.5t-125.5 -16.5q-59 0 -110 15t-88.5 43t-59 69t-21.5 92z" />
<glyph unicode="&#xe24;" horiz-adv-x="778" d="M10 0l117 668q145 166 348 166q59 0 109.5 -14.5t87 -42t57.5 -68.5t21 -93q0 -12 -1.5 -24t-3.5 -25l-153 -874h-62l150 856q4 20 4 45q0 43 -16 76.5t-45.5 56t-70 34t-89.5 11.5q-169 0 -277 -123l-104 -588h123l-10 -61h-185z" />
<glyph unicode="&#xe25;" horiz-adv-x="797" d="M18 193q0 152 121 258q118 106 277 106q172 0 264 -119l20 125q2 8 2 15.5v15.5q0 40 -18 72.5t-48.5 56t-72 36.5t-88.5 13q-43 0 -85.5 -11.5t-80 -32.5t-68 -50t-48.5 -64h-66q43 96 147 158q54 31 108.5 46.5t111.5 15.5t107 -16.5t86.5 -46.5t57.5 -72t21 -93 q0 -23 -4 -43l-98 -563h-62l60 332q-12 36 -35 66t-56 52t-74.5 34t-90.5 12q-63 0 -119.5 -20t-104.5 -62q-51 -45 -76.5 -96.5t-25.5 -114.5q0 -32 9 -59.5t26.5 -48t42 -32.5t55.5 -12q64 0 111 29l28 -49q-68 -41 -149 -41q-44 0 -78 15.5t-58 43t-36.5 64.5t-12.5 80z " />
<glyph unicode="&#xe26;" horiz-adv-x="788" d="M-61 0l10 61h82l106 607q145 166 348 166q59 0 109.5 -14.5t87 -42t57.5 -68.5t21 -93q0 -26 -4 -49l-154 -874h-61l149 856q4 20 4 45q0 43 -16 76.5t-45.5 56t-70 34t-89.5 11.5q-170 0 -276 -123l-115 -649h-143z" />
<glyph unicode="&#xe27;" horiz-adv-x="721" d="M12 213h64q7 -38 26 -68.5t47 -52t63.5 -33.5t76.5 -12q156 0 258 154q90 139 90 301q0 119 -53 190q-59 80 -168 80q-39 0 -78.5 -12t-75.5 -34t-66 -52.5t-49 -67.5h-65q22 51 57 91.5t84 72.5q100 64 205 64q134 0 205 -93q67 -82 67 -225q0 -26 -2.5 -52.5 t-7.5 -53.5q-30 -178 -137 -297q-118 -127 -274 -127q-53 0 -99.5 17t-82.5 47t-58.5 71.5t-26.5 91.5z" />
<glyph unicode="&#xe28;" horiz-adv-x="778" d="M10 0l99 563q21 118 129 195q106 76 237 76q85 0 150 -35l84 82l43 -37l-78 -76q74 -65 74 -160q0 -20 -5 -45l-98 -563h-61l98 563q2 8 2 16.5v16.5q0 40 -17 72.5t-46.5 55.5t-70 35.5t-87.5 12.5q-106 0 -191 -57q-43 -29 -68.5 -66.5t-33.5 -85.5l-20 -117h258 l-11 -61h-258l-67 -385h-62z" />
<glyph unicode="&#xe29;" horiz-adv-x="788" d="M51 213q0 23 4 43l101 563h61l-100 -563q-4 -15 -4 -33q0 -80 67 -129q62 -47 156 -47q104 0 190 57q87 58 103 152l26 147h-237l16 93l45 -31h187l63 354h62l-64 -354h82l-10 -62h-82l-27 -147q-22 -118 -129 -195q-107 -75 -235 -75q-59 0 -109 17t-87 47t-58 71.5 t-21 91.5z" />
<glyph unicode="&#xe2a;" horiz-adv-x="797" d="M18 193q0 152 121 258q118 106 277 106q172 0 264 -119l20 125q2 8 2 15.5v15.5q0 40 -18 72.5t-48.5 56t-72 36.5t-88.5 13q-43 0 -85.5 -11.5t-80 -32.5t-68 -50t-48.5 -64h-66q43 96 147 158q54 31 108.5 46.5t111.5 15.5q42 0 79 -9t72 -26l82 82l43 -37l-78 -76 q74 -65 74 -160q0 -25 -4 -45l-98 -563h-62l60 332q-12 36 -35 66t-56 52t-74.5 34t-90.5 12q-63 0 -119.5 -20t-104.5 -62q-51 -45 -76.5 -96.5t-25.5 -114.5q0 -32 9 -59.5t26.5 -48t42 -32.5t55.5 -12q64 0 111 29l28 -49q-68 -41 -149 -41q-44 0 -78 15.5t-58 43 t-36.5 64.5t-12.5 80z" />
<glyph unicode="&#xe2b;" horiz-adv-x="788" d="M10 0l146 819h61l-55 -309l563 309l41 -33l-240 -135q100 -11 157.5 -63t57.5 -137q0 -25 -4 -45l-71 -406h-62l72 403q2 8 2 15.5v15.5q0 37 -16 67.5t-43.5 53t-65 35t-80.5 12.5q-23 0 -43 -4l-280 -158l-78 -440h-62z" />
<glyph unicode="&#xe2c;" horiz-adv-x="983" d="M84 819h59l58 -717l346 717h55l96 -717l215 502q8 20 12.5 37.5t4.5 34.5q0 92 -113 92h-72l11 51h82q170 0 217 105l45 100h61l-53 -115q-46 -100 -166 -129q49 -36 49 -90q0 -17 -4.5 -38t-15.5 -44l-262 -608h-54l-100 717l-350 -717h-51z" />
<glyph unicode="&#xe2d;" horiz-adv-x="852" d="M43 315q0 23 1.5 46.5t6.5 48.5q5 14 9.5 31t9.5 40h262l-10 -61h-207q0 -8 -2 -10q-5 -20 -7 -40t-2 -40q0 -64 19 -116t54 -89t84.5 -57.5t111.5 -20.5q141 0 250 103q108 102 137 260q5 21 6.5 41.5t1.5 40.5q0 62 -18.5 113.5t-53 88.5t-84.5 57.5t-112 20.5 q-210 0 -328 -199h-66q31 60 73.5 108.5t95 82.5t112.5 52t125 18q73 0 132 -23.5t100 -67t63 -104.5t22 -135q0 -23 -1.5 -46.5t-6.5 -47.5q-34 -187 -159 -306q-124 -118 -300 -118q-74 0 -133 23.5t-100 66.5t-63.5 104t-22.5 135z" />
<glyph unicode="&#xe2e;" horiz-adv-x="852" d="M43 315q0 23 1.5 46.5t6.5 48.5q5 14 9.5 31t9.5 40h262l-10 -61h-207q0 -8 -2 -10q-5 -20 -7 -40t-2 -40q0 -64 19 -116t54 -89t84.5 -57.5t111.5 -20.5q141 0 250 103q108 102 137 260q5 21 6.5 41.5t1.5 40.5q0 62 -18.5 113.5t-53 88.5t-84.5 57.5t-112 20.5 q-210 0 -328 -199h-66q31 60 73.5 108.5t95 82.5t112.5 52t125 18q93 0 164 -39l86 86l39 -33l-80 -82q108 -86 108 -260q0 -23 -1.5 -47.5t-6.5 -48.5q-34 -187 -159 -306q-124 -118 -300 -118q-74 0 -133.5 23.5t-100.5 66.5t-63 104t-22 135z" />
<glyph unicode="&#xe2f;" horiz-adv-x="770" d="M92 625q0 92 86 151q77 53 172 53q62 0 101 -14l-11 -61q-47 16 -98 16q-34 0 -65.5 -8t-56.5 -23.5t-42 -37.5t-22 -50q-6 -29 5.5 -52.5t36.5 -40.5t60 -26.5t76 -9.5q69 0 131 17t119 49q73 43 112 96l25 135h61l-145 -819h-62l105 598q-131 -131 -358 -131 q-111 0 -170.5 44t-59.5 114z" />
<glyph unicode="&#xe30;" horiz-adv-x="266" d="M-2 102l20 115h62l-10 -55h133l-10 -60h-195zM86 602l20 115h62l-10 -55h133l-10 -60h-195z" />
<glyph unicode="&#xe31;" d="M-238 922l23 122h61l-10 -61h471l-12 -61h-533z" />
<glyph unicode="&#xe32;" horiz-adv-x="539" d="M88 727l10 64q87 43 170 43q240 0 240 -222q0 -32 -6 -65l-96 -547h-62l92 528q6 34 6 66q0 182 -186 182q-101 0 -168 -49z" />
<glyph unicode="&#xe33;" horiz-adv-x="539" d="M-74 1008q3 18 13 34t24 28t31 19t35 7q36 0 57.5 -26t15.5 -62q-3 -18 -13 -33.5t-24.5 -27t-31.5 -18.5t-35 -7q-35 0 -56.5 25.5t-15.5 60.5zM-31 1008q-9 -43 35 -43q42 0 51 43t-37 43q-40 0 -49 -43zM88 727l10 64q87 43 170 43q240 0 240 -222q0 -32 -6 -65 l-96 -547h-62l92 528q6 34 6 66q0 182 -186 182q-101 0 -168 -49z" />
<glyph unicode="&#xe34;" d="M-565 922l12 61h594l-12 -61h-594z" />
<glyph unicode="&#xe35;" d="M-565 922l12 61h533l16 102h61l-28 -163h-594z" />
<glyph unicode="&#xe36;" d="M-565 922l12 61h479q-3 9 0 25q3 18 13 34t24 28t31 19t35 7q36 0 57.5 -26t15.5 -62q-3 -18 -13 -33.5t-24.5 -27t-31.5 -18.5t-35 -7h-563zM-31 1008q-9 -43 35 -43q42 0 51 43t-37 43q-40 0 -49 -43z" />
<glyph unicode="&#xe37;" d="M-565 922l12 61h410l16 102h61l-16 -102h62l16 102h61l-28 -163h-594z" />
<glyph unicode="&#xe38;" d="M-301 -143l10 61h144l-39 -225h-62l29 164h-82z" />
<glyph unicode="&#xe39;" d="M-506 -143l10 61h123l-26 -145q19 -33 77 -33q16 0 31.5 5.5t28.5 15t22.5 23t12.5 28.5l18 106h62l-19 -108q-4 -27 -20 -49.5t-39 -39t-52 -25.5t-59 -9q-92 0 -127 65l19 105h-62z" />
<glyph unicode="&#xe3a;" d="M-244 -137q9 55 66 55q54 0 45 -55q-9 -56 -66 -56q-26 0 -38 14t-7 42z" />
<glyph unicode="&#xe3f;" horiz-adv-x="788" d="M43 0l190 1081h222l28 164h64l-29 -166q207 -18 207 -215q0 -113 -53 -190q-41 -56 -111 -99q170 -48 170 -221q0 -156 -115 -256q-113 -98 -276 -98h-12l-31 -174h-64l31 174h-221zM119 61h155l82 465h-155zM213 590h156l75 428h-155zM338 61q70 1 130.5 21.5t104 58.5 t68.5 91.5t25 121.5q0 160 -246 172zM432 592q188 27 221 213q2 14 3 26t1 23q0 138 -151 160z" />
<glyph unicode="&#xe40;" horiz-adv-x="246" d="M31 0l145 819h62l-146 -819h-61z" />
<glyph unicode="&#xe41;" horiz-adv-x="430" d="M31 0l145 819h62l-146 -819h-61zM215 0l145 819h62l-146 -819h-61z" />
<glyph unicode="&#xe42;" horiz-adv-x="266" d="M51 0l166 946q9 64 -57 115q-32 26 -47.5 50.5t-10.5 49.5q4 25 19.5 45.5t38 34.5t51 21.5t59.5 7.5h252l-10 -62h-264q-75 0 -84 -47q-3 -29 57 -74q62 -42 62 -108q0 -19 -4 -35l-166 -944h-62z" />
<glyph unicode="&#xe43;" horiz-adv-x="266" d="M25 1112q6 34 26.5 65t51.5 53.5t69.5 36t79.5 13.5q37 0 67.5 -10t52.5 -27.5t34 -41.5t12 -52q0 -69 -64 -121q-69 -57 -80 -110l-161 -918h-62l164 928q10 61 70 110q61 49 67 82q8 45 -23 75t-87 30q-29 0 -55.5 -8.5t-47.5 -24t-35 -36t-18 -44.5h-61z" />
<glyph unicode="&#xe44;" horiz-adv-x="266" d="M31 1231l45 43l119 -111l131 94l82 -124q-109 -82 -127 -185l-168 -948h-62l164 934q21 115 123 186l-39 58l-117 -88z" />
<glyph unicode="&#xe45;" horiz-adv-x="539" d="M88 727l10 64q87 43 170 43q240 0 240 -222q0 -32 -6 -65l-150 -854h-61l145 835q6 34 6 66q0 182 -186 182q-101 0 -168 -49z" />
<glyph unicode="&#xe46;" horiz-adv-x="776" d="M63 475l21 119q9 53 33 96.5t58.5 74t78.5 47.5t94 17l90 -112l127 112q88 0 137.5 -48.5t49.5 -133.5q0 -14 -1 -26.5t-3 -26.5l-158 -901h-62l158 901q4 20 4 43q0 118 -108 139l-158 -141l-109 141q-141 -24 -170 -182l-10 -57h168l-10 -62h-230z" />
<glyph unicode="&#xe47;" d="M-522 922l10 57q27 156 219 156h363l-11 -56h-368q-117 0 -140 -92l-2 -8h89l124 68l95 -68h118l-10 -57h-127l-86 65l-112 -65h-162z" />
<glyph unicode="&#xe48;" d="M8 1147l25 143h61l-24 -143h-62z" />
<glyph unicode="&#xe49;" d="M-137 1225l10 57h35q81 0 72 -61l-3 -17h246l-10 -57h-305l6 37q6 41 -31 41h-20z" />
<glyph unicode="&#xe4a;" d="M-168 1147l12 67q22 111 146 111h8l59 -63l82 63h6q113 0 113 -88v-10.5t-2 -12.5l-2 -10h131l-10 -57h-189l11 57q12 64 -56 64h-6l-90 -70l-65 70h-5q-66 0 -75 -64l-2 -2h77l-8 -55h-135z" />
<glyph unicode="&#xe4b;" d="M-53 1212l10 50h72l10 65h61l-10 -65h72l-10 -50h-72l-10 -65h-62l10 65h-71z" />
<glyph unicode="&#xe4c;" d="M-78 1065l6 35q17 92 113 92h88l-10 -53h-60q-65 0 -71 -45l-4 -29h-62z" />
<glyph unicode="&#xe4d;" d="M-74 1008q3 18 13 34t24 28t31 19t35 7q36 0 57.5 -26t15.5 -62q-3 -18 -13 -33.5t-24.5 -27t-31.5 -18.5t-35 -7q-35 0 -56.5 25.5t-15.5 60.5zM-31 1008q-9 -43 35 -43q42 0 51 43t-37 43q-40 0 -49 -43z" />
<glyph unicode="&#xe4e;" d="M-360 1016q9 59 81 106q32 20 64.5 29.5t64.5 9.5q-52 26 -38 92q27 162 389 162l-11 -55q-8 2 -19.5 2h-27.5q-81 0 -155 -23q-102 -27 -111 -88q-12 -65 109 -65l-9 -53q-84 0 -157 -21q-106 -30 -115 -88q-9 -49 64 -49q47 0 114 29l19 -48q-95 -34 -146 -34 q-49 0 -84 22q-20 14 -28.5 31.5t-3.5 40.5z" />
<glyph unicode="&#xe4f;" horiz-adv-x="963" d="M66 336q0 193 151 344q152 149 348 149q156 0 252 -100q101 -98 101 -246q0 -193 -154 -344q-75 -75 -162 -112t-184 -37q-153 0 -254 98q-98 101 -98 248zM127 348q0 -125 84 -213q87 -84 217 -84q164 0 297 127q131 128 131 293q0 128 -86 211q-83 86 -215 86 q-165 0 -297 -129q-131 -125 -131 -291zM231 365q0 119 93 208q94 93 213 93q47 0 86.5 -16t68 -44.5t44.5 -67t16 -83.5q0 -119 -95 -211q-92 -90 -211 -90q-47 0 -86 16t-68 44t-45 67t-16 84z" />
<glyph unicode="&#xe50;" horiz-adv-x="721" d="M29 252q0 146 116 260q118 115 265 115q58 0 107 -20t85 -55t56 -83t20 -104q0 -149 -117 -263q-119 -114 -264 -114q-59 0 -108 20t-84.5 55.5t-55.5 84t-20 104.5zM84 262q0 -47 16.5 -86.5t45.5 -68.5t70 -45.5t89 -16.5q122 0 217 92q48 48 71 101t23 116 q0 46 -16 85.5t-45 68t-69.5 45t-88.5 16.5q-63 0 -117 -23t-102 -71q-94 -91 -94 -213z" />
<glyph unicode="&#xe51;" horiz-adv-x="770" d="M33 281q0 26 4 49q11 66 47 119t96 98q113 80 246 80q67 0 122.5 -18t95.5 -51t62.5 -80.5t22.5 -106.5q0 -27 -6 -58q-27 -153 -176 -272q-131 -104 -283 -125l-18 55q152 17 278 125q142 118 142 262q0 47 -18.5 86t-51.5 66.5t-78.5 43t-99.5 15.5q-121 0 -217 -75 q-107 -83 -107 -199q0 -32 10.5 -59t29.5 -47.5t46 -32t60 -11.5q36 0 53 7q-66 28 -66 98q0 31 13 60t35 50.5t50.5 34.5t59.5 13q51 0 82 -31.5t31 -79.5q0 -91 -92 -156q-86 -59 -179 -59q-45 0 -81 14.5t-61 41t-38.5 63t-13.5 80.5zM285 274q-7 -32 12 -54.5t51 -22.5 t59 22.5t33 54.5q6 33 -13.5 55.5t-51.5 22.5t-58 -23t-32 -55z" />
<glyph unicode="&#xe52;" horiz-adv-x="1087" d="M-51 836l55 41q123 -141 152 -355q12 -94 12.5 -208t-10.5 -253h745l68 375q2 6 2 12.5v14.5q0 48 -31 74t-76 26q-78 0 -143 -80l-59 -329h-62l60 331q-38 78 -132 78q-30 0 -59.5 -11t-54.5 -30.5t-42.5 -46t-23.5 -57.5l-6 -31q37 21 76 21q24 0 44.5 -8.5t35.5 -23.5 t23.5 -35t8.5 -44q0 -31 -13.5 -59t-35.5 -49t-50.5 -33.5t-59.5 -12.5q-51 0 -81 30.5t-30 78.5v10.5t2 11.5l25 144q15 90 90 147q38 29 78.5 44.5t85.5 15.5q106 0 159 -78q79 78 177 78q69 0 112 -38.5t43 -107.5v-16.5t-2 -16.5l-78 -446h-862q8 82 12.5 150.5 t4.5 125.5q0 60 -4.5 116t-12.5 110q-14 100 -50 182.5t-93 151.5zM319 274q-6 -32 13 -54.5t51 -22.5t59 22.5t33 54.5t-13.5 55t-51.5 23t-58 -23t-33 -55z" />
<glyph unicode="&#xe53;" horiz-adv-x="924" d="M29 98v11t2 12l53 297q15 87 96 147q40 29 81.5 44.5t86.5 15.5q116 0 170 -78q78 78 187 78q34 0 64 -11t52.5 -30.5t35.5 -46.5t13 -60v-15.5t-2 -15.5l-77 -446h-62l78 436q2 6 2 12v11q0 49 -34.5 76.5t-82.5 27.5q-94 0 -153 -80l-86 -483h-62l86 485 q-36 78 -141 78q-63 0 -119 -41q-61 -42 -72 -104l-32 -185q34 21 75 21q51 0 81 -30.5t30 -78.5q0 -31 -13 -59t-35 -49.5t-50.5 -34t-59.5 -12.5q-49 0 -80.5 30t-31.5 78zM86 121q-6 -32 14 -55t52 -23t57.5 23t32.5 55q6 32 -13 55t-51 23t-59 -23t-33 -55z" />
<glyph unicode="&#xe54;" horiz-adv-x="831" d="M27 229q0 14 1 28t3 30q21 137 137 233q57 48 120 71t132 23h282q111 0 158 246h62q-11 -63 -28.5 -113t-43.5 -92q-32 -51 -71 -76.5t-87 -25.5h-282q-113 0 -207 -76q-96 -77 -111 -190q-4 -20 -4 -43q0 -94 66 -148q58 -49 149 -49q26 0 56.5 3t62.5 11q35 8 58 12.5 t34 4.5q-92 47 -92 147q0 33 13 63t35 53t51.5 36.5t62.5 13.5q49 0 79.5 -30t30.5 -78q0 -30 -12 -57.5t-32.5 -48.5t-47.5 -34.5t-57 -15.5q17 -26 98 -41q26 -5 43 -8.5t25 -5.5q20 -7 33.5 -14.5t21.5 -18.5l-47 -49q-29 20 -68 29.5t-90 9.5q-17 0 -46.5 -5t-74.5 -16 q-83 -18 -155 -18q-111 0 -181 57q-77 65 -77 182zM481 258q-6 -32 14 -55t52 -23t58 23t32 55t-13 55t-51 23t-59 -23t-33 -55z" />
<glyph unicode="&#xe55;" horiz-adv-x="831" d="M27 229q0 14 1 28t3 30q18 121 114 213q90 86 209 108q-25 32 -16 84q5 28 20.5 53t38 44t49.5 29.5t56 10.5t53 -10t40.5 -28.5t23.5 -43.5t2 -55q-8 -39 -39 -78h120q111 0 158 246h62q-11 -63 -28.5 -113t-43.5 -92q-32 -51 -71 -76.5t-87 -25.5h-282q-113 0 -207 -76 q-96 -77 -111 -190q-4 -20 -4 -43q0 -94 66 -148q58 -49 149 -49q26 0 56.5 3t62.5 11q35 8 58 12.5t34 4.5q-92 47 -92 147q0 33 13 63t35 53t51.5 36.5t62.5 13.5q49 0 79.5 -30t30.5 -78q0 -30 -12 -57.5t-32.5 -48.5t-47.5 -34.5t-57 -15.5q17 -26 98 -41q26 -5 43 -8.5 t25 -5.5q20 -7 33.5 -14.5t21.5 -18.5l-47 -49q-29 20 -68 29.5t-90 9.5q-17 0 -46.5 -5t-74.5 -16q-83 -18 -155 -18q-57 0 -101 15t-80 44q-77 65 -77 180zM397 692q-6 -35 15 -58.5t53 -23.5q18 0 34 7t28.5 18t21.5 26t12 31q6 35 -14.5 58.5t-52.5 23.5q-36 0 -63 -25 t-34 -57zM481 258q-6 -32 14 -55t52 -23t58 23t32 55t-13 55t-51 23t-59 -23t-33 -55z" />
<glyph unicode="&#xe56;" horiz-adv-x="778" d="M-4 803l53 39q125 -125 125 -303q131 86 275 86q63 0 116 -18.5t91.5 -52t59.5 -81t21 -104.5q0 -30 -6 -58q-24 -141 -143 -233t-269 -92q-61 0 -111 16.5t-86 45t-55.5 67t-19.5 82.5q0 33 12.5 63t34 52.5t50.5 36t63 13.5q27 0 50 -10.5t38.5 -28.5t21.5 -42t0 -52 q-4 -25 -17.5 -48t-33 -41t-44.5 -29t-52 -13q57 -51 160 -51q134 0 237 88q107 89 107 217q0 46 -18.5 85t-50.5 67t-75.5 43.5t-93.5 15.5q-142 0 -270 -104l-57 16q0 200 -113 328zM106 229q-6 -32 13 -54.5t51 -22.5t59 22.5t33 54.5t-13.5 55t-51.5 23t-58 -23t-33 -55 z" />
<glyph unicode="&#xe57;" horiz-adv-x="1116" d="M29 98v11t2 12l53 297q15 87 96 147q40 29 81.5 44.5t86.5 15.5q116 0 170 -78q78 78 187 78q34 0 64 -10.5t52.5 -30t35.5 -46.5t13 -61v-15.5t-2 -15.5l-69 -395q25 0 50 9t46.5 25.5t36.5 39.5t20 51l82 463q20 109 137 205l41 -37q-100 -70 -118 -176l-78 -447 q-9 -48 -34 -85t-63 -61.5t-87 -36t-105 -9.5l80 444q2 6 2 12v11q0 49 -34.5 76.5t-82.5 27.5q-94 0 -153 -80l-86 -483h-62l86 485q-36 78 -141 78q-63 0 -119 -41q-61 -42 -72 -104l-32 -185q34 21 75 21q51 0 81 -30.5t30 -78.5q0 -31 -13 -59t-35 -49.5t-50.5 -34 t-59.5 -12.5q-49 0 -80.5 30t-31.5 78zM86 121q-6 -32 14 -55t52 -23t57.5 23t32.5 55q6 32 -13 55t-51 23t-59 -23t-33 -55z" />
<glyph unicode="&#xe58;" horiz-adv-x="858" d="M27 244q0 29 6 59q24 141 157 229q133 93 310 93q139 0 223 -31q48 57 79 118t48 130l61 -4q-41 -166 -176 -316q-109 41 -250 41q-145 0 -262 -78q-133 -88 -133 -227q0 -70 41 -129q37 -48 88 -68l174 170l148 -168q29 14 54.5 29.5t45.5 32.5q-43 6 -65.5 39t-14.5 78 q4 24 17 45.5t32 37.5t42.5 25.5t47.5 9.5q25 0 44.5 -10t32.5 -26.5t18.5 -39t1.5 -46.5q-22 -131 -285 -250l-131 149l-152 -149q-93 24 -147.5 91.5t-54.5 164.5zM616 242q-5 -26 10.5 -45t41.5 -19q66 0 75 64q5 26 -11 44.5t-42 18.5q-64 0 -74 -63z" />
<glyph unicode="&#xe59;" horiz-adv-x="922" d="M29 238q0 36 6 75q21 136 129 226q54 45 111.5 67.5t123.5 22.5q142 0 226 -117q58 117 170 117q64 0 96 -51q74 107 86 270h61q-5 -60 -19 -115.5t-40 -109.5q-47 -96 -115 -152q-9 96 -80 96q-21 0 -40.5 -10.5t-36 -27t-28.5 -38t-17 -42.5q32 -72 47.5 -160 t15.5 -197v-43.5t-2 -44.5l-61 -8q2 25 2 48v46q0 477 -275 477q-105 0 -190 -73q-83 -74 -103 -185q-6 -30 -6 -57q0 -45 13 -83t34.5 -65t50 -42t60.5 -15q-47 38 -35 105q5 27 20 51.5t36.5 42.5t47.5 28.5t54 10.5q49 0 79.5 -30.5t30.5 -78.5q0 -79 -71 -135 q-36 -26 -73 -39.5t-79 -13.5q-115 0 -176 73q-53 68 -53 177zM268 152q-6 -32 13 -55t51 -23t59 23t33 55t-13 54.5t-51 22.5t-59 -22.5t-33 -54.5z" />
<glyph unicode="&#xe5a;" horiz-adv-x="936" d="M92 621v15t2 15q15 88 96 135q70 43 160 43q59 0 101 -14l-11 -61q-47 16 -98 16q-165 0 -186 -119q-13 -66 55 -100q53 -29 123 -29q98 0 196 39q111 47 166 123l25 135h61l-34 -194q37 20 66 45.5t52 54.5l19 94h61l-145 -819h-62l113 639q-35 -29 -64.5 -48t-52.5 -30 l-98 -561h-62l105 598q-66 -66 -156 -98.5t-202 -32.5q-48 0 -86 8t-70 25q-74 39 -74 121z" />
<glyph unicode="&#xe5b;" horiz-adv-x="1393" d="M66 324q0 21 1.5 44t6.5 46q21 124 92 223q86 119 203 119q37 0 66.5 -15t49.5 -41.5t30.5 -61.5t10.5 -75q0 -14 -1 -26.5t-3 -24.5q-30 -180 -149 -180q-22 0 -39 10t-27.5 27t-15 38t-0.5 44q4 24 15 45.5t27 38t36 26.5t43 10q32 0 53 -18q3 57 -23 98q-27 49 -82 49 q-90 0 -157 -108q-26 -42 -44.5 -88.5t-27.5 -97.5q-5 -20 -6.5 -40t-1.5 -38q0 -199 170 -199q123 0 229 139q85 109 127 250q4 11 6.5 20t4.5 14l4 11q9 25 34 25q46 0 58 -242l41 125q33 96 55 96q54 0 63 -207q46 168 70 168q36 0 74 -159q52 129 76 129q13 0 30 -41 l19 -60q21 70 59 64q63 -5 139 -27q-15 -15 -159 -24q-23 -62 -47 -62q-13 0 -48 113l-30 -78q-14 -29 -25 -44t-22 -15q-17 0 -35 65q-26 82 -27 84q-58 -172 -84 -172q-14 0 -33 84q-21 101 -26 109q-5 -26 -14 -58t-23 -69q-41 -93 -76 -93q-15 0 -24 103 q-11 121 -15 131q-21 -81 -58 -151.5t-91 -133.5q-126 -147 -273 -147q-206 0 -206 248zM340 453q-12 -66 39 -66q53 0 65 66q14 65 -41 65q-51 0 -63 -65z" />
<glyph unicode="&#x2000;" horiz-adv-x="799" />
<glyph unicode="&#x2001;" horiz-adv-x="1599" />
<glyph unicode="&#x2002;" horiz-adv-x="799" />
<glyph unicode="&#x2003;" horiz-adv-x="1599" />
<glyph unicode="&#x2004;" horiz-adv-x="533" />
<glyph unicode="&#x2005;" horiz-adv-x="399" />
<glyph unicode="&#x2006;" horiz-adv-x="266" />
<glyph unicode="&#x2007;" horiz-adv-x="266" />
<glyph unicode="&#x2008;" horiz-adv-x="199" />
<glyph unicode="&#x2009;" horiz-adv-x="319" />
<glyph unicode="&#x200a;" horiz-adv-x="88" />
<glyph unicode="&#x200c;" />
<glyph unicode="&#x200d;" />
<glyph unicode="&#x2010;" horiz-adv-x="475" d="M84 328l10 61h299l-10 -61h-299z" />
<glyph unicode="&#x2011;" horiz-adv-x="475" d="M84 328l10 61h299l-10 -61h-299z" />
<glyph unicode="&#x2012;" horiz-adv-x="475" d="M84 328l10 61h299l-10 -61h-299z" />
<glyph unicode="&#x2013;" horiz-adv-x="778" d="M57 328l11 61h655l-10 -61h-656z" />
<glyph unicode="&#x2014;" horiz-adv-x="1556" d="M57 328l11 61h1433l-10 -61h-1434z" />
<glyph unicode="&#x2018;" horiz-adv-x="385" d="M184 874q11 57 56 109t127 100l18 -22q-112 -65 -143 -158q18 15 49 15q26 0 43.5 -20.5t13.5 -49.5q-2 -15 -10.5 -29t-21.5 -24.5t-28.5 -16.5t-31.5 -6q-42 0 -61 30t-11 72z" />
<glyph unicode="&#x2019;" horiz-adv-x="385" d="M172 797q112 65 143 157q-17 -14 -49 -14q-27 0 -44 20.5t-13 49.5q2 15 10 29t20.5 24t28 16t31.5 6q42 0 61 -30t13 -72q-11 -57 -56 -109t-127 -100z" />
<glyph unicode="&#x201c;" horiz-adv-x="598" d="M184 874q11 57 56 109t127 100l18 -22q-112 -65 -143 -158q18 15 49 15q26 0 43.5 -20.5t13.5 -49.5q-2 -15 -10.5 -29t-21.5 -24.5t-28.5 -16.5t-31.5 -6q-42 0 -61 30t-11 72zM430 874q21 114 182 209l19 -22q-110 -65 -144 -158q19 15 50 15q26 0 43.5 -20.5 t13.5 -49.5q-2 -15 -10.5 -29t-21.5 -24.5t-28.5 -16.5t-31.5 -6q-42 0 -61 30t-11 72z" />
<glyph unicode="&#x201d;" horiz-adv-x="631" d="M172 797q112 65 143 157q-17 -14 -49 -14q-27 0 -44 20.5t-13 49.5q2 15 10 29t20.5 24t28 16t31.5 6q42 0 61 -30t13 -72q-11 -57 -56 -109t-127 -100zM418 797q112 65 143 157q-17 -14 -49 -14q-27 0 -44 20.5t-13 49.5q2 15 10 29t20.5 24t28 16t31.5 6q42 0 60.5 -30 t12.5 -72q-11 -57 -55.5 -109t-126.5 -100z" />
<glyph unicode="&#x2022;" horiz-adv-x="737" d="M68 356q0 143 110 250q114 111 256 111q56 0 103 -19t81 -53t53 -80.5t19 -101.5q0 -139 -110 -252q-112 -109 -254 -109q-56 0 -103.5 19.5t-82 53.5t-53.5 80.5t-19 100.5z" />
<glyph unicode="&#x2026;" horiz-adv-x="918" d="M43 63q12 66 78 66q65 0 53 -66q-12 -65 -76 -65q-29 0 -45 19.5t-10 45.5zM342 63q12 66 78 66q65 0 53 -66q-12 -65 -76 -65q-29 0 -45 19.5t-10 45.5zM641 63q12 66 78 66q65 0 53 -66q-12 -65 -76 -65q-29 0 -45 19.5t-10 45.5z" />
<glyph unicode="&#x202f;" horiz-adv-x="319" />
<glyph unicode="&#x205f;" horiz-adv-x="399" />
<glyph unicode="&#x25fc;" horiz-adv-x="660" d="M0 0v660h660v-660h-660z" />
<glyph unicode="&#xf700;" horiz-adv-x="752" d="M55 690q160 144 369 144q108 0 182 -50l96 97l43 -37l-94 -94q42 -45 62 -102.5t20 -129.5q0 -23 -1.5 -46t-6.5 -46q-35 -197 -182 -320q-78 -63 -166 -91.5t-191 -20.5l-20 450h-82l10 52h133l21 -443q151 -3 268 105q120 108 148 268q6 40 6 76q0 61 -18.5 110.5 t-52.5 85t-82.5 55t-108.5 19.5q-165 0 -310 -123z" />
<glyph unicode="&#xf701;" d="M-729 922l12 61h594l-12 -61h-594z" />
<glyph unicode="&#xf702;" d="M-729 922l12 61h533l16 102h62l-29 -163h-594z" />
<glyph unicode="&#xf703;" d="M-729 922l12 61h479q-3 9 0 25q3 18 13 34t24 28t31 19t35 7t32.5 -7t25 -19t15 -28t1.5 -34t-13.5 -33.5t-25 -27t-32 -18.5t-34.5 -7h-563zM-195 1008q-9 -43 35 -43q42 0 51 43q10 43 -36 43q-40 0 -50 -43z" />
<glyph unicode="&#xf704;" d="M-729 922l12 61h410l16 102h62l-17 -102h62l16 102h62l-29 -163h-594z" />
<glyph unicode="&#xf705;" d="M-238 922l33 184h62l-33 -184h-62z" />
<glyph unicode="&#xf706;" d="M-266 1004l12 61h37q83 0 74 -66l-2 -16h258l-13 -61h-319l8 39q9 43 -33 43h-22z" />
<glyph unicode="&#xf707;" d="M-584 922l15 71q21 117 155 117h8l82 -68l107 68h8q117 0 117 -94v-11t-2 -12l-2 -10h209l-13 -61h-270l10 59q12 68 -55 68h-6l-115 -74l-90 74h-6q-68 0 -80 -68v-8h82l-10 -51h-144z" />
<glyph unicode="&#xf708;" d="M-324 1008l9 53h82l16 86h61l-16 -86h82l-8 -53h-82l-17 -86h-61l16 86h-82z" />
<glyph unicode="&#xf709;" d="M-276 922l6 34q15 93 112 93h88l-8 -54h-59q-63 0 -72 -45l-6 -28h-61z" />
<glyph unicode="&#xf70a;" d="M-33 922l33 184h61l-32 -184h-62z" />
<glyph unicode="&#xf70b;" d="M-219 1004l12 61h37q83 0 74 -66l-2 -16h258l-13 -61h-319l8 39q9 43 -33 43h-22z" />
<glyph unicode="&#xf70c;" d="M-518 922l14 71q22 117 156 117h8l82 -68l106 68h9q116 0 116 -94v-11t-2 -12l-2 -10h137l-12 -61h-198l10 59q12 68 -56 68h-6l-114 -74l-90 74h-7q-67 0 -79 -68v-8h81l-10 -51h-143z" />
<glyph unicode="&#xf70d;" d="M-98 1008l8 53h82l16 86h62l-17 -86h82l-8 -53h-82l-16 -86h-62l17 86h-82z" />
<glyph unicode="&#xf70e;" d="M-104 922l6 34q15 93 112 93h88l-8 -54h-59q-63 0 -72 -45l-6 -28h-61z" />
<glyph unicode="&#xf70f;" horiz-adv-x="1311" d="M10 0l117 668q145 166 348 166q59 0 109.5 -14.5t87 -42t57.5 -68.5t21 -93q0 -11 -1.5 -23t-3.5 -26l-57 -321q-4 -20 -4 -39q0 -38 15 -67.5t42 -50t65 -31.5t83 -11q51 0 96.5 13.5t81.5 39t60 62.5t32 84l103 573h61l-102 -573q-10 -59 -41.5 -107t-77.5 -82 t-103.5 -52.5t-119.5 -18.5q-56 0 -103 15t-81 42.5t-53 67t-19 88.5q0 24 4 47l53 303q4 20 4 45q0 43 -16 76.5t-45.5 56t-70 34t-89.5 11.5q-169 0 -277 -123l-104 -588h123l-10 -61h-185z" />
<glyph unicode="&#xf710;" d="M-360 922l22 122h62l-11 -61h471l-12 -61h-532z" />
<glyph unicode="&#xf711;" d="M-238 1008q3 18 13 34t24 28t31 19t35 7t32.5 -7t25 -19t15 -28t1.5 -34t-13.5 -33.5t-25 -27t-32 -18.5t-34.5 -7q-35 0 -56.5 25.5t-15.5 60.5zM-195 1008q-9 -43 35 -43q42 0 51 43q10 43 -36 43q-40 0 -50 -43z" />
<glyph unicode="&#xf712;" d="M-584 922l11 57q27 156 219 156h362l-10 -56h-369q-118 0 -139 -92l-2 -8h88l125 68l94 -68h119l-10 -57h-127l-86 65l-113 -65h-162z" />
<glyph unicode="&#xf713;" d="M-156 1147l25 143h61l-24 -143h-62z" />
<glyph unicode="&#xf714;" d="M-260 1225l10 57h35q81 0 72 -61l-2 -17h245l-10 -57h-305l6 37q6 41 -31 41h-20z" />
<glyph unicode="&#xf715;" d="M-287 1147l13 67q21 111 145 111h8l60 -63l81 63h7q112 0 112 -88v-10.5t-2 -12.5l-2 -10h131l-10 -57h-188l10 57q12 64 -55 64h-7l-90 -70l-65 70h-4q-67 0 -76 -64l-2 -2h78l-9 -55h-135z" />
<glyph unicode="&#xf716;" d="M-217 1212l10 50h72l10 65h62l-11 -65h72l-10 -50h-72l-10 -65h-62l11 65h-72z" />
<glyph unicode="&#xf717;" d="M-233 1065l6 35q15 92 112 92h88l-10 -53h-59q-66 0 -72 -45l-4 -29h-61z" />
<glyph unicode="&#xf718;" d="M-352 -430l10 61h143l-39 -225h-61l29 164h-82z" />
<glyph unicode="&#xf719;" d="M-557 -430l10 61h123l-25 -145q19 -33 76 -33q16 0 31.5 5.5t28.5 15t22 23t12 28.5l19 106h61l-18 -108q-4 -27 -20 -49.5t-39 -39t-52 -25.5t-59 -9q-94 0 -127 65l18 105h-61z" />
<glyph unicode="&#xf71a;" d="M-293 -424q9 55 64 55q56 0 47 -55t-66 -55q-54 0 -45 55z" />
<glyph unicode="&#xf71d;" />
<glyph unicode="&#xf880;" />
<glyph horiz-adv-x="539" d="M-238 1008q3 18 13 34t24 28t31 19t35 7t32.5 -7t25 -19t15 -28t1.5 -34t-13.5 -33.5t-25 -27t-32 -18.5t-34.5 -7q-35 0 -56.5 25.5t-15.5 60.5zM-195 1008q-9 -43 35 -43q42 0 51 43q10 43 -36 43q-40 0 -50 -43zM88 727l10 64q87 43 170 43q240 0 240 -222 q0 -32 -6 -65l-96 -547h-62l92 528q6 34 6 66q0 182 -186 182q-101 0 -168 -49z" />
<glyph d="M-397 1016q10 59 82 106q32 20 64.5 29.5t64.5 9.5q-51 25 -39 92q27 162 389 162l-10 -55q-8 2 -20 2h-28q-81 0 -155 -23q-102 -27 -111 -88q-12 -65 109 -65l-8 -53q-85 0 -158 -21q-106 -30 -115 -88q-9 -49 64 -49q47 0 114 29l19 -48q-95 -34 -146 -34 q-49 0 -84 22q-20 14 -28.5 31.5t-3.5 40.5z" />
<glyph />
<glyph />
<glyph d="M-729 922l12 61h410l16 102h62l-17 -102h62l16 102h62l-29 -163h-594zM-217 1147l24 143h62l-25 -143h-61z" />
<glyph d="M-692 922l12 61h594l-12 -61h-594z" />
<glyph d="M-692 922l12 61h533l16 102h61l-28 -163h-594z" />
</font>
</defs>
</svg>
